<svg id="visual" viewBox="0 0 2000 500" width="2000" height="500" xmlns="http://www.w3.org/2000/svg" xmlns:xlink="http://www.w3.org/1999/xlink" version="1.1"><rect x="0" y="0" width="2000" height="500" fill="#f5b7c6"></rect><path d="M0 342L47.7 344.2C95.3 346.3 190.7 350.7 285.8 351C381 351.3 476 347.7 571.2 343.2C666.3 338.7 761.7 333.3 857 328.5C952.3 323.7 1047.7 319.3 1143 325.3C1238.3 331.3 1333.7 347.7 1428.8 350.8C1524 354 1619 344 1714.2 334.8C1809.3 325.7 1904.7 317.3 1952.3 313.2L2000 309L2000 501L1952.3 501C1904.7 501 1809.3 501 1714.2 501C1619 501 1524 501 1428.8 501C1333.7 501 1238.3 501 1143 501C1047.7 501 952.3 501 857 501C761.7 501 666.3 501 571.2 501C476 501 381 501 285.8 501C190.7 501 95.3 501 47.7 501L0 501Z" fill="#ed8ea6"></path><path d="M0 381L47.7 376.8C95.3 372.7 190.7 364.3 285.8 360C381 355.7 476 355.3 571.2 353C666.3 350.7 761.7 346.3 857 352.5C952.3 358.7 1047.7 375.3 1143 382.2C1238.3 389 1333.7 386 1428.8 383.3C1524 380.7 1619 378.3 1714.2 370.5C1809.3 362.7 1904.7 349.3 1952.3 342.7L2000 336L2000 501L1952.3 501C1904.7 501 1809.3 501 1714.2 501C1619 501 1524 501 1428.8 501C1333.7 501 1238.3 501 1143 501C1047.7 501 952.3 501 857 501C761.7 501 666.3 501 571.2 501C476 501 381 501 285.8 501C190.7 501 95.3 501 47.7 501L0 501Z" fill="#e47796"></path><path d="M0 399L47.7 401.5C95.3 404 190.7 409 285.8 404.5C381 400 476 386 571.2 380.8C666.3 375.7 761.7 379.3 857 379.7C952.3 380 1047.7 377 1143 378.7C1238.3 380.3 1333.7 386.7 1428.8 392.8C1524 399 1619 405 1714.2 401.5C1809.3 398 1904.7 385 1952.3 378.5L2000 372L2000 501L1952.3 501C1904.7 501 1809.3 501 1714.2 501C1619 501 1524 501 1428.8 501C1333.7 501 1238.3 501 1143 501C1047.7 501 952.3 501 857 501C761.7 501 666.3 501 571.2 501C476 501 381 501 285.8 501C190.7 501 95.3 501 47.7 501L0 501Z" fill="#db5f86"></path><path d="M0 407L47.7 413.2C95.3 419.3 190.7 431.7 285.8 436.8C381 442 476 440 571.2 439.5C666.3 439 761.7 440 857 437.8C952.3 435.7 1047.7 430.3 1143 430.5C1238.3 430.7 1333.7 436.3 1428.8 436.7C1524 437 1619 432 1714.2 427.5C1809.3 423 1904.7 419 1952.3 417L2000 415L2000 501L1952.3 501C1904.7 501 1809.3 501 1714.2 501C1619 501 1524 501 1428.8 501C1333.7 501 1238.3 501 1143 501C1047.7 501 952.3 501 857 501C761.7 501 666.3 501 571.2 501C476 501 381 501 285.8 501C190.7 501 95.3 501 47.7 501L0 501Z" fill="#d14577"></path><path d="M0 442L47.7 446.8C95.3 451.7 190.7 461.3 285.8 464.8C381 468.3 476 465.7 571.2 461C666.3 456.3 761.7 449.7 857 450.7C952.3 451.7 1047.7 460.3 1143 462.8C1238.3 465.3 1333.7 461.7 1428.8 459.8C1524 458 1619 458 1714.2 459.3C1809.3 460.7 1904.7 463.3 1952.3 464.7L2000 466L2000 501L1952.3 501C1904.7 501 1809.3 501 1714.2 501C1619 501 1524 501 1428.8 501C1333.7 501 1238.3 501 1143 501C1047.7 501 952.3 501 857 501C761.7 501 666.3 501 571.2 501C476 501 381 501 285.8 501C190.7 501 95.3 501 47.7 501L0 501Z" fill="#c62368"></path></svg>