<svg viewBox="0 0 32 21.8878" xmlns="http://www.w3.org/2000/svg" xmlns:xlink="http://www.w3.org/1999/xlink" width="32.000000" height="21.887833" fill="none" customFrame="#000000">
	<defs>
		<filter id="pixso_custom_mask_type_alpha">
			<feColorMatrix type="matrix" values="0 0 0 0 1 0 0 0 0 1 0 0 0 0 1 0 0 0 1 0 " />
		</filter>
	</defs>
	<mask id="mask_15" width="32.000000" height="16.000000" x="0.000000" y="3.000000" maskUnits="userSpaceOnUse">
		<g filter="url(#pixso_custom_mask_type_alpha)">
			<rect id="矩形 27" width="32.000000" height="16.000000" x="0.000000" y="3.000000" rx="8.000000" fill="rgb(8,8,8)" />
		</g>
	</mask>
	<rect id="C" width="32.000000" height="21.887833" x="0.000000" y="0.000000" fill="rgb(255,255,255)" fill-opacity="0" />
	<rect id="矩形 28" width="32.000000" height="16.000000" x="0.000000" y="3.000000" rx="8.000000" fill="rgb(255,142,93)" />
	<g id="蒙版" mask="url(#mask_15)">
		<path id="" d="M4.20557 2.80811L4.20557 3.82178L5.25 3.82178L5.25 6.6123L4.65527 6.6123L4.65527 6.31201L3.21533 6.31201L3.21533 6.6123L2.63965 6.6123L2.63965 3.82178L3.63574 3.82178L3.63574 2.80811L2.44189 2.80811L2.44189 2.2207L3.63574 2.2207L3.63574 1.19385L4.20557 1.21729L4.20557 2.2207L5.59131 2.2207L5.59131 2.80811L4.20557 2.80811ZM0.540527 1.79443L2.26172 1.79443L2.26172 6.07178L0.540527 6.07178L0.540527 1.79443ZM1.08545 5.44775L1.71533 5.44775L1.71533 2.39355L1.08545 2.39355L1.08545 5.44775ZM4.65527 4.40332L3.21533 4.40332L3.21533 5.74219L4.65527 5.74219L4.65527 4.40332ZM10.1096 2.80811L10.1096 3.82178L11.154 3.82178L11.154 6.6123L10.5593 6.6123L10.5593 6.31201L9.11933 6.31201L9.11933 6.6123L8.54365 6.6123L8.54365 3.82178L9.53974 3.82178L9.53974 2.80811L8.34589 2.80811L8.34589 2.2207L9.53974 2.2207L9.53974 1.19385L10.1096 1.21729L10.1096 2.2207L11.4953 2.2207L11.4953 2.80811L10.1096 2.80811ZM6.44453 1.79443L8.16572 1.79443L8.16572 6.07178L6.44453 6.07178L6.44453 1.79443ZM6.98945 5.44775L7.61933 5.44775L7.61933 2.39355L6.98945 2.39355L6.98945 5.44775ZM10.5593 4.40332L9.11933 4.40332L9.11933 5.74219L10.5593 5.74219L10.5593 4.40332ZM16.0136 2.80811L16.0136 3.82178L17.058 3.82178L17.058 6.6123L16.4633 6.6123L16.4633 6.31201L15.0233 6.31201L15.0233 6.6123L14.4476 6.6123L14.4476 3.82178L15.4437 3.82178L15.4437 2.80811L14.2499 2.80811L14.2499 2.2207L15.4437 2.2207L15.4437 1.19385L16.0136 1.21729L16.0136 2.2207L17.3993 2.2207L17.3993 2.80811L16.0136 2.80811ZM12.3485 1.79443L14.0697 1.79443L14.0697 6.07178L12.3485 6.07178L12.3485 1.79443ZM12.8934 5.44775L13.5233 5.44775L13.5233 2.39355L12.8934 2.39355L12.8934 5.44775ZM16.4633 4.40332L15.0233 4.40332L15.0233 5.74219L16.4633 5.74219L16.4633 4.40332ZM21.9176 2.80811L21.9176 3.82178L22.962 3.82178L22.962 6.6123L22.3673 6.6123L22.3673 6.31201L20.9273 6.31201L20.9273 6.6123L20.3517 6.6123L20.3517 3.82178L21.3477 3.82178L21.3477 2.80811L20.1539 2.80811L20.1539 2.2207L21.3477 2.2207L21.3477 1.19385L21.9176 1.21729L21.9176 2.2207L23.3033 2.2207L23.3033 2.80811L21.9176 2.80811ZM18.2525 1.79443L19.9737 1.79443L19.9737 6.07178L18.2525 6.07178L18.2525 1.79443ZM18.7975 5.44775L19.4273 5.44775L19.4273 2.39355L18.7975 2.39355L18.7975 5.44775ZM22.3673 4.40332L20.9273 4.40332L20.9273 5.74219L22.3673 5.74219L22.3673 4.40332ZM27.8216 2.80811L27.8216 3.82178L28.866 3.82178L28.866 6.6123L28.2713 6.6123L28.2713 6.31201L26.8313 6.31201L26.8313 6.6123L26.2556 6.6123L26.2556 3.82178L27.2517 3.82178L27.2517 2.80811L26.0579 2.80811L26.0579 2.2207L27.2517 2.2207L27.2517 1.19385L27.8216 1.21729L27.8216 2.2207L29.2073 2.2207L29.2073 2.80811L27.8216 2.80811ZM24.1565 1.79443L25.8777 1.79443L25.8777 6.07178L24.1565 6.07178L24.1565 1.79443ZM24.7015 5.44775L25.3313 5.44775L25.3313 2.39355L24.7015 2.39355L24.7015 5.44775ZM28.2713 4.40332L26.8313 4.40332L26.8313 5.74219L28.2713 5.74219L28.2713 4.40332ZM33.7256 2.80811L33.7256 3.82178L34.77 3.82178L34.77 6.6123L34.1753 6.6123L34.1753 6.31201L32.7353 6.31201L32.7353 6.6123L32.1596 6.6123L32.1596 3.82178L33.1557 3.82178L33.1557 2.80811L31.9619 2.80811L31.9619 2.2207L33.1557 2.2207L33.1557 1.19385L33.7256 1.21729L33.7256 2.2207L35.1113 2.2207L35.1113 2.80811L33.7256 2.80811ZM30.0605 1.79443L31.7817 1.79443L31.7817 6.07178L30.0605 6.07178L30.0605 1.79443ZM30.6054 5.44775L31.2353 5.44775L31.2353 2.39355L30.6054 2.39355L30.6054 5.44775ZM34.1753 4.40332L32.7353 4.40332L32.7353 5.74219L34.1753 5.74219L34.1753 4.40332ZM39.6296 2.80811L39.6296 3.82178L40.674 3.82178L40.674 6.6123L40.0793 6.6123L40.0793 6.31201L38.6393 6.31201L38.6393 6.6123L38.0636 6.6123L38.0636 3.82178L39.0597 3.82178L39.0597 2.80811L37.8659 2.80811L37.8659 2.2207L39.0597 2.2207L39.0597 1.19385L39.6296 1.21729L39.6296 2.2207L41.0153 2.2207L41.0153 2.80811L39.6296 2.80811ZM35.9645 1.79443L37.6857 1.79443L37.6857 6.07178L35.9645 6.07178L35.9645 1.79443ZM36.5094 5.44775L37.1393 5.44775L37.1393 2.39355L36.5094 2.39355L36.5094 5.44775ZM40.0793 4.40332L38.6393 4.40332L38.6393 5.74219L40.0793 5.74219L40.0793 4.40332ZM45.5336 2.80811L45.5336 3.82178L46.578 3.82178L46.578 6.6123L45.9833 6.6123L45.9833 6.31201L44.5433 6.31201L44.5433 6.6123L43.9676 6.6123L43.9676 3.82178L44.9637 3.82178L44.9637 2.80811L43.7699 2.80811L43.7699 2.2207L44.9637 2.2207L44.9637 1.19385L45.5336 1.21729L45.5336 2.2207L46.9193 2.2207L46.9193 2.80811L45.5336 2.80811ZM41.8685 1.79443L43.5897 1.79443L43.5897 6.07178L41.8685 6.07178L41.8685 1.79443ZM42.4134 5.44775L43.0433 5.44775L43.0433 2.39355L42.4134 2.39355L42.4134 5.44775ZM45.9833 4.40332L44.5433 4.40332L44.5433 5.74219L45.9833 5.74219L45.9833 4.40332ZM51.4376 2.80811L51.4376 3.82178L52.482 3.82178L52.482 6.6123L51.8873 6.6123L51.8873 6.31201L50.4473 6.31201L50.4473 6.6123L49.8716 6.6123L49.8716 3.82178L50.8677 3.82178L50.8677 2.80811L49.6739 2.80811L49.6739 2.2207L50.8677 2.2207L50.8677 1.19385L51.4376 1.21729L51.4376 2.2207L52.8233 2.2207L52.8233 2.80811L51.4376 2.80811ZM47.7725 1.79443L49.4937 1.79443L49.4937 6.07178L47.7725 6.07178L47.7725 1.79443ZM48.3174 5.44775L48.9473 5.44775L48.9473 2.39355L48.3174 2.39355L48.3174 5.44775ZM51.8873 4.40332L50.4473 4.40332L50.4473 5.74219L51.8873 5.74219L51.8873 4.40332ZM57.3416 2.80811L57.3416 3.82178L58.386 3.82178L58.386 6.6123L57.7913 6.6123L57.7913 6.31201L56.3513 6.31201L56.3513 6.6123L55.7756 6.6123L55.7756 3.82178L56.7717 3.82178L56.7717 2.80811L55.5779 2.80811L55.5779 2.2207L56.7717 2.2207L56.7717 1.19385L57.3416 1.21729L57.3416 2.2207L58.7273 2.2207L58.7273 2.80811L57.3416 2.80811ZM53.6765 1.79443L55.3977 1.79443L55.3977 6.07178L53.6765 6.07178L53.6765 1.79443ZM54.2214 5.44775L54.8513 5.44775L54.8513 2.39355L54.2214 2.39355L54.2214 5.44775ZM57.7913 4.40332L56.3513 4.40332L56.3513 5.74219L57.7913 5.74219L57.7913 4.40332ZM63.2456 2.80811L63.2456 3.82178L64.29 3.82178L64.29 6.6123L63.6953 6.6123L63.6953 6.31201L62.2553 6.31201L62.2553 6.6123L61.6796 6.6123L61.6796 3.82178L62.6757 3.82178L62.6757 2.80811L61.4819 2.80811L61.4819 2.2207L62.6757 2.2207L62.6757 1.19385L63.2456 1.21729L63.2456 2.2207L64.6313 2.2207L64.6313 2.80811L63.2456 2.80811ZM59.5805 1.79443L61.3017 1.79443L61.3017 6.07178L59.5805 6.07178L59.5805 1.79443ZM60.1254 5.44775L60.7553 5.44775L60.7553 2.39355L60.1254 2.39355L60.1254 5.44775ZM63.6953 4.40332L62.2553 4.40332L62.2553 5.74219L63.6953 5.74219L63.6953 4.40332ZM69.1496 2.80811L69.1496 3.82178L70.194 3.82178L70.194 6.6123L69.5993 6.6123L69.5993 6.31201L68.1593 6.31201L68.1593 6.6123L67.5836 6.6123L67.5836 3.82178L68.5797 3.82178L68.5797 2.80811L67.3859 2.80811L67.3859 2.2207L68.5797 2.2207L68.5797 1.19385L69.1496 1.21729L69.1496 2.2207L70.5353 2.2207L70.5353 2.80811L69.1496 2.80811ZM65.4845 1.79443L67.2057 1.79443L67.2057 6.07178L65.4845 6.07178L65.4845 1.79443ZM66.0294 5.44775L66.6593 5.44775L66.6593 2.39355L66.0294 2.39355L66.0294 5.44775ZM69.5993 4.40332L68.1593 4.40332L68.1593 5.74219L69.5993 5.74219L69.5993 4.40332Z" opacity="0" fill="rgb(79,78,78)" fill-rule="nonzero" transform="matrix(0.926762,-0.375648,0.375648,0.926762,-18,20.671)" />
		<path id="" d="M4.20557 2.80811L4.20557 3.82178L5.25 3.82178L5.25 6.6123L4.65527 6.6123L4.65527 6.31201L3.21533 6.31201L3.21533 6.6123L2.63965 6.6123L2.63965 3.82178L3.63574 3.82178L3.63574 2.80811L2.44189 2.80811L2.44189 2.2207L3.63574 2.2207L3.63574 1.19385L4.20557 1.21729L4.20557 2.2207L5.59131 2.2207L5.59131 2.80811L4.20557 2.80811ZM0.540527 1.79443L2.26172 1.79443L2.26172 6.07178L0.540527 6.07178L0.540527 1.79443ZM1.08545 5.44775L1.71533 5.44775L1.71533 2.39355L1.08545 2.39355L1.08545 5.44775ZM4.65527 4.40332L3.21533 4.40332L3.21533 5.74219L4.65527 5.74219L4.65527 4.40332ZM10.1096 2.80811L10.1096 3.82178L11.154 3.82178L11.154 6.6123L10.5593 6.6123L10.5593 6.31201L9.11933 6.31201L9.11933 6.6123L8.54365 6.6123L8.54365 3.82178L9.53974 3.82178L9.53974 2.80811L8.34589 2.80811L8.34589 2.2207L9.53974 2.2207L9.53974 1.19385L10.1096 1.21729L10.1096 2.2207L11.4953 2.2207L11.4953 2.80811L10.1096 2.80811ZM6.44453 1.79443L8.16572 1.79443L8.16572 6.07178L6.44453 6.07178L6.44453 1.79443ZM6.98945 5.44775L7.61933 5.44775L7.61933 2.39355L6.98945 2.39355L6.98945 5.44775ZM10.5593 4.40332L9.11933 4.40332L9.11933 5.74219L10.5593 5.74219L10.5593 4.40332ZM16.0136 2.80811L16.0136 3.82178L17.058 3.82178L17.058 6.6123L16.4633 6.6123L16.4633 6.31201L15.0233 6.31201L15.0233 6.6123L14.4476 6.6123L14.4476 3.82178L15.4437 3.82178L15.4437 2.80811L14.2499 2.80811L14.2499 2.2207L15.4437 2.2207L15.4437 1.19385L16.0136 1.21729L16.0136 2.2207L17.3993 2.2207L17.3993 2.80811L16.0136 2.80811ZM12.3485 1.79443L14.0697 1.79443L14.0697 6.07178L12.3485 6.07178L12.3485 1.79443ZM12.8934 5.44775L13.5233 5.44775L13.5233 2.39355L12.8934 2.39355L12.8934 5.44775ZM16.4633 4.40332L15.0233 4.40332L15.0233 5.74219L16.4633 5.74219L16.4633 4.40332ZM21.9176 2.80811L21.9176 3.82178L22.962 3.82178L22.962 6.6123L22.3673 6.6123L22.3673 6.31201L20.9273 6.31201L20.9273 6.6123L20.3517 6.6123L20.3517 3.82178L21.3477 3.82178L21.3477 2.80811L20.1539 2.80811L20.1539 2.2207L21.3477 2.2207L21.3477 1.19385L21.9176 1.21729L21.9176 2.2207L23.3033 2.2207L23.3033 2.80811L21.9176 2.80811ZM18.2525 1.79443L19.9737 1.79443L19.9737 6.07178L18.2525 6.07178L18.2525 1.79443ZM18.7975 5.44775L19.4273 5.44775L19.4273 2.39355L18.7975 2.39355L18.7975 5.44775ZM22.3673 4.40332L20.9273 4.40332L20.9273 5.74219L22.3673 5.74219L22.3673 4.40332ZM27.8216 2.80811L27.8216 3.82178L28.866 3.82178L28.866 6.6123L28.2713 6.6123L28.2713 6.31201L26.8313 6.31201L26.8313 6.6123L26.2556 6.6123L26.2556 3.82178L27.2517 3.82178L27.2517 2.80811L26.0579 2.80811L26.0579 2.2207L27.2517 2.2207L27.2517 1.19385L27.8216 1.21729L27.8216 2.2207L29.2073 2.2207L29.2073 2.80811L27.8216 2.80811ZM24.1565 1.79443L25.8777 1.79443L25.8777 6.07178L24.1565 6.07178L24.1565 1.79443ZM24.7015 5.44775L25.3313 5.44775L25.3313 2.39355L24.7015 2.39355L24.7015 5.44775ZM28.2713 4.40332L26.8313 4.40332L26.8313 5.74219L28.2713 5.74219L28.2713 4.40332ZM33.7256 2.80811L33.7256 3.82178L34.77 3.82178L34.77 6.6123L34.1753 6.6123L34.1753 6.31201L32.7353 6.31201L32.7353 6.6123L32.1596 6.6123L32.1596 3.82178L33.1557 3.82178L33.1557 2.80811L31.9619 2.80811L31.9619 2.2207L33.1557 2.2207L33.1557 1.19385L33.7256 1.21729L33.7256 2.2207L35.1113 2.2207L35.1113 2.80811L33.7256 2.80811ZM30.0605 1.79443L31.7817 1.79443L31.7817 6.07178L30.0605 6.07178L30.0605 1.79443ZM30.6054 5.44775L31.2353 5.44775L31.2353 2.39355L30.6054 2.39355L30.6054 5.44775ZM34.1753 4.40332L32.7353 4.40332L32.7353 5.74219L34.1753 5.74219L34.1753 4.40332ZM39.6296 2.80811L39.6296 3.82178L40.674 3.82178L40.674 6.6123L40.0793 6.6123L40.0793 6.31201L38.6393 6.31201L38.6393 6.6123L38.0636 6.6123L38.0636 3.82178L39.0597 3.82178L39.0597 2.80811L37.8659 2.80811L37.8659 2.2207L39.0597 2.2207L39.0597 1.19385L39.6296 1.21729L39.6296 2.2207L41.0153 2.2207L41.0153 2.80811L39.6296 2.80811ZM35.9645 1.79443L37.6857 1.79443L37.6857 6.07178L35.9645 6.07178L35.9645 1.79443ZM36.5094 5.44775L37.1393 5.44775L37.1393 2.39355L36.5094 2.39355L36.5094 5.44775ZM40.0793 4.40332L38.6393 4.40332L38.6393 5.74219L40.0793 5.74219L40.0793 4.40332ZM45.5336 2.80811L45.5336 3.82178L46.578 3.82178L46.578 6.6123L45.9833 6.6123L45.9833 6.31201L44.5433 6.31201L44.5433 6.6123L43.9676 6.6123L43.9676 3.82178L44.9637 3.82178L44.9637 2.80811L43.7699 2.80811L43.7699 2.2207L44.9637 2.2207L44.9637 1.19385L45.5336 1.21729L45.5336 2.2207L46.9193 2.2207L46.9193 2.80811L45.5336 2.80811ZM41.8685 1.79443L43.5897 1.79443L43.5897 6.07178L41.8685 6.07178L41.8685 1.79443ZM42.4134 5.44775L43.0433 5.44775L43.0433 2.39355L42.4134 2.39355L42.4134 5.44775ZM45.9833 4.40332L44.5433 4.40332L44.5433 5.74219L45.9833 5.74219L45.9833 4.40332ZM51.4376 2.80811L51.4376 3.82178L52.482 3.82178L52.482 6.6123L51.8873 6.6123L51.8873 6.31201L50.4473 6.31201L50.4473 6.6123L49.8716 6.6123L49.8716 3.82178L50.8677 3.82178L50.8677 2.80811L49.6739 2.80811L49.6739 2.2207L50.8677 2.2207L50.8677 1.19385L51.4376 1.21729L51.4376 2.2207L52.8233 2.2207L52.8233 2.80811L51.4376 2.80811ZM47.7725 1.79443L49.4937 1.79443L49.4937 6.07178L47.7725 6.07178L47.7725 1.79443ZM48.3174 5.44775L48.9473 5.44775L48.9473 2.39355L48.3174 2.39355L48.3174 5.44775ZM51.8873 4.40332L50.4473 4.40332L50.4473 5.74219L51.8873 5.74219L51.8873 4.40332ZM57.3416 2.80811L57.3416 3.82178L58.386 3.82178L58.386 6.6123L57.7913 6.6123L57.7913 6.31201L56.3513 6.31201L56.3513 6.6123L55.7756 6.6123L55.7756 3.82178L56.7717 3.82178L56.7717 2.80811L55.5779 2.80811L55.5779 2.2207L56.7717 2.2207L56.7717 1.19385L57.3416 1.21729L57.3416 2.2207L58.7273 2.2207L58.7273 2.80811L57.3416 2.80811ZM53.6765 1.79443L55.3977 1.79443L55.3977 6.07178L53.6765 6.07178L53.6765 1.79443ZM54.2214 5.44775L54.8513 5.44775L54.8513 2.39355L54.2214 2.39355L54.2214 5.44775ZM57.7913 4.40332L56.3513 4.40332L56.3513 5.74219L57.7913 5.74219L57.7913 4.40332ZM63.2456 2.80811L63.2456 3.82178L64.29 3.82178L64.29 6.6123L63.6953 6.6123L63.6953 6.31201L62.2553 6.31201L62.2553 6.6123L61.6796 6.6123L61.6796 3.82178L62.6757 3.82178L62.6757 2.80811L61.4819 2.80811L61.4819 2.2207L62.6757 2.2207L62.6757 1.19385L63.2456 1.21729L63.2456 2.2207L64.6313 2.2207L64.6313 2.80811L63.2456 2.80811ZM59.5805 1.79443L61.3017 1.79443L61.3017 6.07178L59.5805 6.07178L59.5805 1.79443ZM60.1254 5.44775L60.7553 5.44775L60.7553 2.39355L60.1254 2.39355L60.1254 5.44775ZM63.6953 4.40332L62.2553 4.40332L62.2553 5.74219L63.6953 5.74219L63.6953 4.40332ZM69.1496 2.80811L69.1496 3.82178L70.194 3.82178L70.194 6.6123L69.5993 6.6123L69.5993 6.31201L68.1593 6.31201L68.1593 6.6123L67.5836 6.6123L67.5836 3.82178L68.5797 3.82178L68.5797 2.80811L67.3859 2.80811L67.3859 2.2207L68.5797 2.2207L68.5797 1.19385L69.1496 1.21729L69.1496 2.2207L70.5353 2.2207L70.5353 2.80811L69.1496 2.80811ZM65.4845 1.79443L67.2057 1.79443L67.2057 6.07178L65.4845 6.07178L65.4845 1.79443ZM66.0294 5.44775L66.6593 5.44775L66.6593 2.39355L66.0294 2.39355L66.0294 5.44775ZM69.5993 4.40332L68.1593 4.40332L68.1593 5.74219L69.5993 5.74219L69.5993 4.40332Z" opacity="0" fill="rgb(79,78,78)" fill-rule="nonzero" transform="matrix(0.926762,-0.375648,0.375648,0.926762,-17,13.671)" />
		<path id="" d="M4.20557 2.80811L4.20557 3.82178L5.25 3.82178L5.25 6.6123L4.65527 6.6123L4.65527 6.31201L3.21533 6.31201L3.21533 6.6123L2.63965 6.6123L2.63965 3.82178L3.63574 3.82178L3.63574 2.80811L2.44189 2.80811L2.44189 2.2207L3.63574 2.2207L3.63574 1.19385L4.20557 1.21729L4.20557 2.2207L5.59131 2.2207L5.59131 2.80811L4.20557 2.80811ZM0.540527 1.79443L2.26172 1.79443L2.26172 6.07178L0.540527 6.07178L0.540527 1.79443ZM1.08545 5.44775L1.71533 5.44775L1.71533 2.39355L1.08545 2.39355L1.08545 5.44775ZM4.65527 4.40332L3.21533 4.40332L3.21533 5.74219L4.65527 5.74219L4.65527 4.40332ZM10.1096 2.80811L10.1096 3.82178L11.154 3.82178L11.154 6.6123L10.5593 6.6123L10.5593 6.31201L9.11933 6.31201L9.11933 6.6123L8.54365 6.6123L8.54365 3.82178L9.53974 3.82178L9.53974 2.80811L8.34589 2.80811L8.34589 2.2207L9.53974 2.2207L9.53974 1.19385L10.1096 1.21729L10.1096 2.2207L11.4953 2.2207L11.4953 2.80811L10.1096 2.80811ZM6.44453 1.79443L8.16572 1.79443L8.16572 6.07178L6.44453 6.07178L6.44453 1.79443ZM6.98945 5.44775L7.61933 5.44775L7.61933 2.39355L6.98945 2.39355L6.98945 5.44775ZM10.5593 4.40332L9.11933 4.40332L9.11933 5.74219L10.5593 5.74219L10.5593 4.40332ZM16.0136 2.80811L16.0136 3.82178L17.058 3.82178L17.058 6.6123L16.4633 6.6123L16.4633 6.31201L15.0233 6.31201L15.0233 6.6123L14.4476 6.6123L14.4476 3.82178L15.4437 3.82178L15.4437 2.80811L14.2499 2.80811L14.2499 2.2207L15.4437 2.2207L15.4437 1.19385L16.0136 1.21729L16.0136 2.2207L17.3993 2.2207L17.3993 2.80811L16.0136 2.80811ZM12.3485 1.79443L14.0697 1.79443L14.0697 6.07178L12.3485 6.07178L12.3485 1.79443ZM12.8934 5.44775L13.5233 5.44775L13.5233 2.39355L12.8934 2.39355L12.8934 5.44775ZM16.4633 4.40332L15.0233 4.40332L15.0233 5.74219L16.4633 5.74219L16.4633 4.40332ZM21.9176 2.80811L21.9176 3.82178L22.962 3.82178L22.962 6.6123L22.3673 6.6123L22.3673 6.31201L20.9273 6.31201L20.9273 6.6123L20.3517 6.6123L20.3517 3.82178L21.3477 3.82178L21.3477 2.80811L20.1539 2.80811L20.1539 2.2207L21.3477 2.2207L21.3477 1.19385L21.9176 1.21729L21.9176 2.2207L23.3033 2.2207L23.3033 2.80811L21.9176 2.80811ZM18.2525 1.79443L19.9737 1.79443L19.9737 6.07178L18.2525 6.07178L18.2525 1.79443ZM18.7975 5.44775L19.4273 5.44775L19.4273 2.39355L18.7975 2.39355L18.7975 5.44775ZM22.3673 4.40332L20.9273 4.40332L20.9273 5.74219L22.3673 5.74219L22.3673 4.40332ZM27.8216 2.80811L27.8216 3.82178L28.866 3.82178L28.866 6.6123L28.2713 6.6123L28.2713 6.31201L26.8313 6.31201L26.8313 6.6123L26.2556 6.6123L26.2556 3.82178L27.2517 3.82178L27.2517 2.80811L26.0579 2.80811L26.0579 2.2207L27.2517 2.2207L27.2517 1.19385L27.8216 1.21729L27.8216 2.2207L29.2073 2.2207L29.2073 2.80811L27.8216 2.80811ZM24.1565 1.79443L25.8777 1.79443L25.8777 6.07178L24.1565 6.07178L24.1565 1.79443ZM24.7015 5.44775L25.3313 5.44775L25.3313 2.39355L24.7015 2.39355L24.7015 5.44775ZM28.2713 4.40332L26.8313 4.40332L26.8313 5.74219L28.2713 5.74219L28.2713 4.40332ZM33.7256 2.80811L33.7256 3.82178L34.77 3.82178L34.77 6.6123L34.1753 6.6123L34.1753 6.31201L32.7353 6.31201L32.7353 6.6123L32.1596 6.6123L32.1596 3.82178L33.1557 3.82178L33.1557 2.80811L31.9619 2.80811L31.9619 2.2207L33.1557 2.2207L33.1557 1.19385L33.7256 1.21729L33.7256 2.2207L35.1113 2.2207L35.1113 2.80811L33.7256 2.80811ZM30.0605 1.79443L31.7817 1.79443L31.7817 6.07178L30.0605 6.07178L30.0605 1.79443ZM30.6054 5.44775L31.2353 5.44775L31.2353 2.39355L30.6054 2.39355L30.6054 5.44775ZM34.1753 4.40332L32.7353 4.40332L32.7353 5.74219L34.1753 5.74219L34.1753 4.40332ZM39.6296 2.80811L39.6296 3.82178L40.674 3.82178L40.674 6.6123L40.0793 6.6123L40.0793 6.31201L38.6393 6.31201L38.6393 6.6123L38.0636 6.6123L38.0636 3.82178L39.0597 3.82178L39.0597 2.80811L37.8659 2.80811L37.8659 2.2207L39.0597 2.2207L39.0597 1.19385L39.6296 1.21729L39.6296 2.2207L41.0153 2.2207L41.0153 2.80811L39.6296 2.80811ZM35.9645 1.79443L37.6857 1.79443L37.6857 6.07178L35.9645 6.07178L35.9645 1.79443ZM36.5094 5.44775L37.1393 5.44775L37.1393 2.39355L36.5094 2.39355L36.5094 5.44775ZM40.0793 4.40332L38.6393 4.40332L38.6393 5.74219L40.0793 5.74219L40.0793 4.40332ZM45.5336 2.80811L45.5336 3.82178L46.578 3.82178L46.578 6.6123L45.9833 6.6123L45.9833 6.31201L44.5433 6.31201L44.5433 6.6123L43.9676 6.6123L43.9676 3.82178L44.9637 3.82178L44.9637 2.80811L43.7699 2.80811L43.7699 2.2207L44.9637 2.2207L44.9637 1.19385L45.5336 1.21729L45.5336 2.2207L46.9193 2.2207L46.9193 2.80811L45.5336 2.80811ZM41.8685 1.79443L43.5897 1.79443L43.5897 6.07178L41.8685 6.07178L41.8685 1.79443ZM42.4134 5.44775L43.0433 5.44775L43.0433 2.39355L42.4134 2.39355L42.4134 5.44775ZM45.9833 4.40332L44.5433 4.40332L44.5433 5.74219L45.9833 5.74219L45.9833 4.40332ZM51.4376 2.80811L51.4376 3.82178L52.482 3.82178L52.482 6.6123L51.8873 6.6123L51.8873 6.31201L50.4473 6.31201L50.4473 6.6123L49.8716 6.6123L49.8716 3.82178L50.8677 3.82178L50.8677 2.80811L49.6739 2.80811L49.6739 2.2207L50.8677 2.2207L50.8677 1.19385L51.4376 1.21729L51.4376 2.2207L52.8233 2.2207L52.8233 2.80811L51.4376 2.80811ZM47.7725 1.79443L49.4937 1.79443L49.4937 6.07178L47.7725 6.07178L47.7725 1.79443ZM48.3174 5.44775L48.9473 5.44775L48.9473 2.39355L48.3174 2.39355L48.3174 5.44775ZM51.8873 4.40332L50.4473 4.40332L50.4473 5.74219L51.8873 5.74219L51.8873 4.40332ZM57.3416 2.80811L57.3416 3.82178L58.386 3.82178L58.386 6.6123L57.7913 6.6123L57.7913 6.31201L56.3513 6.31201L56.3513 6.6123L55.7756 6.6123L55.7756 3.82178L56.7717 3.82178L56.7717 2.80811L55.5779 2.80811L55.5779 2.2207L56.7717 2.2207L56.7717 1.19385L57.3416 1.21729L57.3416 2.2207L58.7273 2.2207L58.7273 2.80811L57.3416 2.80811ZM53.6765 1.79443L55.3977 1.79443L55.3977 6.07178L53.6765 6.07178L53.6765 1.79443ZM54.2214 5.44775L54.8513 5.44775L54.8513 2.39355L54.2214 2.39355L54.2214 5.44775ZM57.7913 4.40332L56.3513 4.40332L56.3513 5.74219L57.7913 5.74219L57.7913 4.40332ZM63.2456 2.80811L63.2456 3.82178L64.29 3.82178L64.29 6.6123L63.6953 6.6123L63.6953 6.31201L62.2553 6.31201L62.2553 6.6123L61.6796 6.6123L61.6796 3.82178L62.6757 3.82178L62.6757 2.80811L61.4819 2.80811L61.4819 2.2207L62.6757 2.2207L62.6757 1.19385L63.2456 1.21729L63.2456 2.2207L64.6313 2.2207L64.6313 2.80811L63.2456 2.80811ZM59.5805 1.79443L61.3017 1.79443L61.3017 6.07178L59.5805 6.07178L59.5805 1.79443ZM60.1254 5.44775L60.7553 5.44775L60.7553 2.39355L60.1254 2.39355L60.1254 5.44775ZM63.6953 4.40332L62.2553 4.40332L62.2553 5.74219L63.6953 5.74219L63.6953 4.40332ZM69.1496 2.80811L69.1496 3.82178L70.194 3.82178L70.194 6.6123L69.5993 6.6123L69.5993 6.31201L68.1593 6.31201L68.1593 6.6123L67.5836 6.6123L67.5836 3.82178L68.5797 3.82178L68.5797 2.80811L67.3859 2.80811L67.3859 2.2207L68.5797 2.2207L68.5797 1.19385L69.1496 1.21729L69.1496 2.2207L70.5353 2.2207L70.5353 2.80811L69.1496 2.80811ZM65.4845 1.79443L67.2057 1.79443L67.2057 6.07178L65.4845 6.07178L65.4845 1.79443ZM66.0294 5.44775L66.6593 5.44775L66.6593 2.39355L66.0294 2.39355L66.0294 5.44775ZM69.5993 4.40332L68.1593 4.40332L68.1593 5.74219L69.5993 5.74219L69.5993 4.40332Z" opacity="0" fill="rgb(79,78,78)" fill-rule="nonzero" transform="matrix(0.917504,-0.397727,0.397727,0.917504,-14,26.2386)" />
		<path id="矢量 59" d="M22.8182 4C22.8182 4.1042 22.8233 4.20816 22.8335 4.31186C22.8437 4.41556 22.859 4.51852 22.8793 4.62072C22.8996 4.72292 22.9249 4.82388 22.9552 4.9236C22.9854 5.02331 23.0205 5.12131 23.0604 5.21758C23.1003 5.31386 23.1448 5.40794 23.1939 5.49984C23.243 5.59174 23.2965 5.68101 23.3544 5.76766C23.4123 5.8543 23.4743 5.9379 23.5404 6.01845C23.6065 6.099 23.6764 6.17612 23.7501 6.2498C23.8238 6.32348 23.9009 6.39338 23.9814 6.45948C24.062 6.52559 24.1456 6.58759 24.2322 6.64548C24.3189 6.70338 24.4081 6.75689 24.5 6.80601C24.5919 6.85513 24.686 6.89963 24.7823 6.9395C24.8786 6.97938 24.9766 7.01444 25.0763 7.04469C25.176 7.07494 25.277 7.10023 25.3792 7.12056C25.4814 7.14089 25.5843 7.15616 25.688 7.16638C25.7917 7.17659 25.8957 7.1817 25.9999 7.1817C26.1041 7.1817 26.2081 7.17659 26.3118 7.16638C26.4155 7.15616 26.5184 7.14089 26.6206 7.12056C26.7228 7.10023 26.8238 7.07494 26.9235 7.04469C27.0232 7.01444 27.1212 6.97938 27.2175 6.9395C27.3138 6.89963 27.4078 6.85513 27.4997 6.80601C27.5917 6.75688 27.6809 6.70338 27.7676 6.64548C27.8542 6.58759 27.9378 6.52559 28.0184 6.45948C28.0989 6.39338 28.176 6.32348 28.2497 6.2498C28.3234 6.17612 28.3933 6.099 28.4594 6.01845C28.5255 5.93789 28.5875 5.8543 28.6454 5.76765C28.7033 5.68101 28.7568 5.59174 28.8059 5.49984C28.855 5.40794 28.8995 5.31385 28.9394 5.21758C28.9793 5.12131 29.0144 5.02331 29.0446 4.9236C29.0749 4.82388 29.1001 4.72292 29.1205 4.62072C29.1408 4.51852 29.1561 4.41556 29.1663 4.31186C29.1765 4.20816 29.1816 4.1042 29.1816 4C29.1816 3.8958 29.1765 3.79184 29.1663 3.68814C29.1561 3.58444 29.1408 3.48148 29.1205 3.37928C29.1002 3.27708 29.0749 3.17612 29.0446 3.0764C29.0144 2.97668 28.9793 2.87869 28.9394 2.78242C28.8995 2.68614 28.855 2.59206 28.8059 2.50016C28.7568 2.40826 28.7033 2.31899 28.6454 2.23234C28.5875 2.1457 28.5255 2.0621 28.4594 1.98155C28.3933 1.901 28.3234 1.82388 28.2497 1.7502C28.176 1.67652 28.0989 1.60662 28.0184 1.54051C27.9378 1.47441 27.8542 1.41241 27.7676 1.35451C27.6809 1.29662 27.5917 1.24311 27.4997 1.19399C27.4078 1.14487 27.3138 1.10037 27.2175 1.06049C27.1212 1.02062 27.0232 0.985554 26.9235 0.955305C26.8238 0.925056 26.7228 0.899767 26.6206 0.879437C26.5184 0.859108 26.4155 0.843837 26.3118 0.833623C26.2081 0.823409 26.1041 0.818302 25.9999 0.818302C25.8957 0.818302 25.7917 0.823409 25.688 0.833623C25.5843 0.843837 25.4814 0.859108 25.3792 0.879437C25.277 0.899767 25.176 0.925056 25.0763 0.955305C24.9766 0.985554 24.8786 1.02062 24.7823 1.06049C24.686 1.10037 24.5919 1.14487 24.5 1.19399C24.4081 1.24311 24.3189 1.29662 24.2322 1.35451C24.1456 1.41241 24.062 1.47441 23.9814 1.54051C23.9009 1.60662 23.8238 1.67652 23.7501 1.7502C23.6764 1.82388 23.6065 1.901 23.5404 1.98155C23.4743 2.0621 23.4123 2.1457 23.3544 2.23234C23.2965 2.31899 23.243 2.40826 23.1939 2.50016C23.1448 2.59206 23.1003 2.68614 23.0604 2.78242C23.0205 2.87869 22.9854 2.97668 22.9552 3.0764C22.9249 3.17612 22.8996 3.27708 22.8793 3.37928C22.859 3.48148 22.8437 3.58444 22.8335 3.68814C22.8233 3.79184 22.8182 3.8958 22.8182 4ZM25.9618 0.325174L26.038 0.325174C26.0637 0.325169 26.089 0.322666 26.1142 0.317664C26.1393 0.312662 26.1637 0.305257 26.1874 0.295449C26.211 0.285641 26.2335 0.273619 26.2548 0.259382C26.2761 0.245146 26.2959 0.228968 26.314 0.210849C26.3321 0.19273 26.3483 0.173019 26.3625 0.151714C26.3767 0.130409 26.3888 0.107921 26.3986 0.0842481C26.4084 0.0605755 26.4158 0.0361741 26.4208 0.0110433C26.4258 -0.0140876 26.4283 -0.0394648 26.4283 -0.0650884L26.4283 -1.60974C26.4283 -1.63536 26.4258 -1.66074 26.4208 -1.68587C26.4158 -1.711 26.4084 -1.7354 26.3986 -1.75907C26.3888 -1.78275 26.3767 -1.80524 26.3625 -1.82654C26.3483 -1.84784 26.3321 -1.86756 26.314 -1.88568C26.2959 -1.90379 26.2761 -1.91997 26.2548 -1.93421C26.2335 -1.94844 26.211 -1.96047 26.1874 -1.97028C26.1637 -1.98008 26.1393 -1.98749 26.1142 -1.99249C26.089 -1.99749 26.0637 -2 26.038 -2L25.9618 -2C25.9362 -2 25.9108 -1.99749 25.8857 -1.99249C25.8606 -1.98749 25.8362 -1.98008 25.8125 -1.97028C25.7888 -1.96047 25.7663 -1.94845 25.745 -1.93421C25.7237 -1.91997 25.704 -1.90379 25.6859 -1.88568C25.6678 -1.86756 25.6516 -1.84784 25.6374 -1.82654C25.6231 -1.80524 25.6111 -1.78275 25.6013 -1.75907C25.5915 -1.7354 25.5841 -1.711 25.5791 -1.68587C25.5741 -1.66074 25.5716 -1.63536 25.5716 -1.60974L25.5716 -0.0650884C25.5716 -0.0394658 25.5741 -0.0140901 25.5791 0.011039C25.5841 0.0361679 25.5915 0.0605679 25.6013 0.0842383C25.6111 0.107909 25.6231 0.130395 25.6374 0.151699C25.6516 0.173002 25.6678 0.192713 25.6859 0.21083C25.704 0.228948 25.7237 0.245125 25.745 0.259362C25.7663 0.273599 25.7888 0.285622 25.8125 0.295432C25.8362 0.305241 25.8606 0.312648 25.8857 0.317653C25.9108 0.322658 25.9362 0.325165 25.9618 0.325174L25.9618 0.325174ZM22.8227 1.42843C22.8408 1.44655 22.8605 1.46273 22.8818 1.47696C22.9032 1.4912 22.9256 1.50322 22.9493 1.51303C22.973 1.52283 22.9974 1.53024 23.0225 1.53524C23.0476 1.54023 23.073 1.54273 23.0986 1.54273C23.1243 1.54273 23.1496 1.54023 23.1748 1.53524C23.1999 1.53024 23.2243 1.52283 23.248 1.51303C23.2717 1.50322 23.2941 1.4912 23.3154 1.47696C23.3368 1.46273 23.3565 1.44655 23.3746 1.42843L23.4284 1.37463C23.4466 1.35651 23.4627 1.3368 23.477 1.3155C23.4912 1.29419 23.5032 1.27171 23.513 1.24803C23.5229 1.22436 23.5303 1.19996 23.5353 1.17483C23.5403 1.1497 23.5428 1.12432 23.5428 1.0987C23.5428 1.07308 23.5403 1.0477 23.5353 1.02257C23.5303 0.997438 23.5229 0.973036 23.513 0.949364C23.5032 0.925692 23.4912 0.903204 23.477 0.8819C23.4627 0.860596 23.4466 0.840885 23.4284 0.822768L22.3363 -0.269353C22.3182 -0.28747 22.2985 -0.303646 22.2772 -0.317881C22.2559 -0.332116 22.2334 -0.344135 22.2097 -0.35394C22.186 -0.363745 22.1616 -0.371147 22.1365 -0.376145C22.1113 -0.381143 22.0859 -0.383643 22.0603 -0.383643C22.0347 -0.383643 22.0093 -0.381143 21.9842 -0.376145C21.959 -0.371146 21.9346 -0.363745 21.911 -0.35394C21.8873 -0.344135 21.8648 -0.332116 21.8435 -0.317881C21.8222 -0.303646 21.8024 -0.28747 21.7843 -0.269353L21.7305 -0.215553C21.7124 -0.197441 21.6962 -0.177734 21.682 -0.156431C21.6677 -0.135129 21.6557 -0.112641 21.6459 -0.0889683C21.6361 -0.0652953 21.6287 -0.0408927 21.6237 -0.0157601C21.6187 0.00937223 21.6162 0.0347517 21.6162 0.0603771C21.6162 0.0860026 21.6187 0.111382 21.6237 0.136514C21.6287 0.161647 21.6361 0.186049 21.6459 0.209722C21.6557 0.233395 21.6677 0.255883 21.682 0.277185C21.6962 0.298487 21.7124 0.318195 21.7305 0.336307L22.8227 1.42843ZM22.3251 4.03807L22.3251 3.962C22.3251 3.93637 22.3226 3.91099 22.3176 3.88586C22.3126 3.86072 22.3052 3.83632 22.2954 3.81264C22.2856 3.78897 22.2736 3.76647 22.2594 3.74517C22.2451 3.72386 22.229 3.70414 22.2108 3.68602C22.1927 3.6679 22.173 3.65172 22.1517 3.63749C22.1304 3.62325 22.1079 3.61123 22.0842 3.60143C22.0605 3.59162 22.0361 3.58422 22.011 3.57922C21.9859 3.57423 21.9605 3.57173 21.9349 3.57174L20.3903 3.57174C20.3646 3.57174 20.3393 3.57424 20.3141 3.57924C20.289 3.58424 20.2646 3.59164 20.2409 3.60144C20.2172 3.61125 20.1948 3.62327 20.1734 3.63751C20.1521 3.65175 20.1324 3.66792 20.1143 3.68604C20.0962 3.70416 20.08 3.72388 20.0658 3.74518C20.0515 3.76649 20.0395 3.78898 20.0297 3.81265C20.0199 3.83633 20.0125 3.86073 20.0075 3.88586C20.0025 3.911 20 3.93638 20 3.962L20 4.03807C20 4.06369 20.0025 4.08907 20.0075 4.11421C20.0125 4.13934 20.0199 4.16375 20.0297 4.18742C20.0395 4.2111 20.0515 4.23359 20.0658 4.2549C20.08 4.27621 20.0962 4.29592 20.1143 4.31404C20.1324 4.33216 20.1521 4.34834 20.1734 4.36258C20.1947 4.37681 20.2172 4.38883 20.2409 4.39864C20.2646 4.40844 20.289 4.41584 20.3141 4.42084C20.3393 4.42584 20.3646 4.42833 20.3903 4.42833L21.9348 4.42833C21.9604 4.42834 21.9858 4.42585 22.0109 4.42085C22.0361 4.41586 22.0605 4.40846 22.0842 4.39866C22.1078 4.38886 22.1303 4.37684 22.1517 4.3626C22.173 4.34837 22.1927 4.33219 22.2108 4.31407C22.2289 4.29595 22.2451 4.27623 22.2594 4.25492C22.2736 4.23361 22.2856 4.21112 22.2954 4.18744C22.3052 4.16376 22.3126 4.13935 22.3176 4.11421C22.3226 4.08908 22.3251 4.0637 22.3251 4.03807ZM23.3747 6.57157C23.3566 6.55344 23.3369 6.53725 23.3156 6.523C23.2943 6.50875 23.2718 6.49672 23.2481 6.4869C23.2244 6.47709 23.2 6.46968 23.1749 6.46468C23.1497 6.45967 23.1243 6.45717 23.0987 6.45717C23.0731 6.45717 23.0477 6.45967 23.0226 6.46468C22.9974 6.46968 22.973 6.47709 22.9493 6.4869C22.9257 6.49672 22.9032 6.50875 22.8819 6.523C22.8605 6.53725 22.8408 6.55344 22.8227 6.57157L21.7306 7.66369C21.7125 7.68182 21.6963 7.70154 21.6821 7.72285C21.6678 7.74416 21.6558 7.76666 21.646 7.79033C21.6362 7.81401 21.6288 7.83842 21.6238 7.86355C21.6188 7.88868 21.6163 7.91406 21.6163 7.93969C21.6163 7.96532 21.6188 7.99069 21.6238 8.01583C21.6288 8.04097 21.6362 8.06537 21.646 8.08905C21.6558 8.11272 21.6678 8.13522 21.6821 8.15653C21.6963 8.17784 21.7125 8.19756 21.7306 8.21569L21.7844 8.26949C21.8025 8.2876 21.8222 8.30378 21.8435 8.31802C21.8649 8.33225 21.8873 8.34427 21.911 8.35407C21.9347 8.36388 21.9591 8.37128 21.9842 8.37628C22.0094 8.38128 22.0348 8.38378 22.0604 8.38378C22.086 8.38378 22.1114 8.38128 22.1365 8.37628C22.1617 8.37128 22.1861 8.36388 22.2098 8.35407C22.2334 8.34427 22.2559 8.33225 22.2772 8.31802C22.2985 8.30378 22.3183 8.2876 22.3364 8.26949L23.4285 7.1773C23.4466 7.15918 23.4628 7.13946 23.4771 7.11816C23.4913 7.09685 23.5033 7.07436 23.5131 7.05068C23.5229 7.02701 23.5303 7.00261 23.5353 6.97747C23.5403 6.95234 23.5428 6.92696 23.5428 6.90133C23.5428 6.87571 23.5403 6.85033 23.5353 6.82519C23.5303 6.80006 23.5229 6.77566 23.5131 6.75198C23.5033 6.72831 23.4913 6.70582 23.4771 6.68451C23.4628 6.6632 23.4466 6.64349 23.4285 6.62537L23.3747 6.57157ZM26.0381 7.67482L25.9619 7.67482C25.9363 7.67482 25.9109 7.67732 25.8858 7.68231C25.8606 7.68731 25.8362 7.69471 25.8125 7.70451C25.7889 7.71432 25.7664 7.72634 25.7451 7.74058C25.7238 7.75481 25.704 7.77099 25.6859 7.78911C25.6678 7.80723 25.6516 7.82695 25.6374 7.84825C25.6231 7.86956 25.6111 7.89205 25.6013 7.91573C25.5915 7.93941 25.5841 7.96381 25.5791 7.98895C25.5741 8.01408 25.5716 8.03946 25.5716 8.06509L25.5716 9.60974C25.5716 9.63536 25.5741 9.66075 25.5791 9.68588C25.5841 9.71102 25.5915 9.73542 25.6013 9.7591C25.6112 9.78277 25.6232 9.80527 25.6374 9.82658C25.6517 9.84788 25.6678 9.8676 25.686 9.88572C25.7041 9.90384 25.7238 9.92002 25.7451 9.93425C25.7664 9.94849 25.7889 9.96051 25.8126 9.97031C25.8363 9.98011 25.8607 9.98751 25.8858 9.99251C25.911 9.99751 25.9363 10 25.962 10L26.038 10C26.0636 10 26.089 9.99751 26.1141 9.99251C26.1392 9.98751 26.1636 9.98011 26.1873 9.97031C26.211 9.9605 26.2335 9.94848 26.2548 9.93425C26.2761 9.92001 26.2958 9.90383 26.3139 9.88571C26.3321 9.86759 26.3482 9.84788 26.3625 9.82657C26.3767 9.80526 26.3887 9.78277 26.3985 9.75909C26.4083 9.73542 26.4157 9.71101 26.4207 9.68588C26.4257 9.66074 26.4282 9.63536 26.4282 9.60974L26.4282 8.06509C26.4282 8.03946 26.4258 8.01408 26.4208 7.98895C26.4158 7.96381 26.4084 7.93941 26.3986 7.91573C26.3888 7.89205 26.3768 7.86956 26.3626 7.84825C26.3483 7.82694 26.3322 7.80722 26.314 7.7891C26.2959 7.77098 26.2762 7.7548 26.2549 7.74056C26.2336 7.72632 26.2111 7.7143 26.1874 7.7045C26.1638 7.69469 26.1394 7.6873 26.1142 7.6823C26.0891 7.67731 26.0637 7.67482 26.0381 7.67483L26.0381 7.67482ZM29.1774 6.57157C29.1593 6.55344 29.1396 6.53725 29.1183 6.52301C29.097 6.50876 29.0745 6.49673 29.0508 6.48692C29.0271 6.4771 29.0027 6.46969 28.9776 6.46468C28.9525 6.45967 28.9271 6.45716 28.9015 6.45715C28.8758 6.45714 28.8504 6.45963 28.8253 6.46462C28.8002 6.46961 28.7758 6.47701 28.7521 6.48681C28.7284 6.49661 28.7059 6.50862 28.6846 6.52285C28.6633 6.53708 28.6435 6.55326 28.6254 6.57137L28.5716 6.62537C28.5535 6.64348 28.5373 6.66319 28.523 6.68449C28.5088 6.7058 28.4968 6.72829 28.4869 6.75196C28.4771 6.77564 28.4697 6.80005 28.4647 6.82518C28.4597 6.85032 28.4572 6.8757 28.4572 6.90133C28.4572 6.92697 28.4597 6.95235 28.4647 6.97749C28.4697 7.00262 28.4771 7.02703 28.4869 7.05071C28.4968 7.07438 28.5088 7.09687 28.523 7.11818C28.5373 7.13948 28.5535 7.15919 28.5716 7.1773L29.6638 8.26949C29.6819 8.28761 29.7016 8.30379 29.723 8.31802C29.7443 8.33226 29.7668 8.34428 29.7904 8.35409C29.8141 8.36389 29.8385 8.3713 29.8636 8.3763C29.8888 8.3813 29.9142 8.3838 29.9398 8.3838C29.9654 8.3838 29.9908 8.3813 30.0159 8.3763C30.041 8.3713 30.0655 8.36389 30.0891 8.35409C30.1128 8.34428 30.1353 8.33226 30.1566 8.31802C30.1779 8.30379 30.1976 8.28761 30.2157 8.26949L30.2695 8.21549C30.2877 8.19737 30.3038 8.17766 30.3181 8.15636C30.3323 8.13506 30.3443 8.11258 30.3541 8.08891C30.3639 8.06524 30.3713 8.04084 30.3763 8.01571C30.3813 7.99058 30.3838 7.96521 30.3838 7.93959C30.3838 7.91397 30.3813 7.88859 30.3763 7.86347C30.3713 7.83834 30.3639 7.81394 30.3541 7.79027C30.3443 7.7666 30.3323 7.74412 30.3181 7.72282C30.3038 7.70151 30.2877 7.68181 30.2695 7.66369L29.1774 6.57157ZM31.6097 3.57167L30.0651 3.57167C30.0395 3.57167 30.0141 3.57416 29.989 3.57916C29.9638 3.58415 29.9394 3.59155 29.9157 3.60135C29.8921 3.61115 29.8696 3.62316 29.8483 3.63739C29.827 3.65162 29.8073 3.6678 29.7891 3.68591C29.771 3.70402 29.7548 3.72373 29.7406 3.74503C29.7264 3.76633 29.7143 3.78881 29.7045 3.81248C29.6947 3.83615 29.6873 3.86055 29.6823 3.88568C29.6773 3.9108 29.6748 3.93618 29.6748 3.9618L29.6748 4.038C29.6748 4.06362 29.6773 4.089 29.6823 4.11413C29.6873 4.13926 29.6947 4.16366 29.7045 4.18734C29.7143 4.21101 29.7264 4.2335 29.7406 4.2548C29.7548 4.27611 29.771 4.29582 29.7891 4.31394C29.8073 4.33206 29.827 4.34823 29.8483 4.36247C29.8696 4.37671 29.8921 4.38873 29.9157 4.39854C29.9394 4.40834 29.9638 4.41575 29.9889 4.42075C30.0141 4.42575 30.0395 4.42826 30.0651 4.42826L31.6097 4.42826C31.6354 4.42827 31.6607 4.42577 31.6859 4.42077C31.711 4.41578 31.7354 4.40838 31.7591 4.39857C31.7828 4.38877 31.8053 4.37675 31.8266 4.36251C31.8479 4.34827 31.8676 4.3321 31.8857 4.31398C31.9038 4.29586 31.92 4.27614 31.9342 4.25483C31.9485 4.23352 31.9605 4.21103 31.9703 4.18736C31.9801 4.16368 31.9875 4.13927 31.9925 4.11414C31.9975 4.08901 32 4.06363 32 4.038L32 3.9618C32 3.93618 31.9975 3.9108 31.9925 3.88567C31.9875 3.86054 31.9801 3.83614 31.9703 3.81247C31.9605 3.7888 31.9485 3.76632 31.9342 3.74501C31.92 3.72371 31.9038 3.704 31.8857 3.68589C31.8676 3.66777 31.8479 3.6516 31.8265 3.63737C31.8052 3.62314 31.7827 3.61113 31.7591 3.60133C31.7354 3.59153 31.711 3.58414 31.6859 3.57914C31.6607 3.57415 31.6354 3.57166 31.6097 3.57167L31.6097 3.57167ZM28.6254 1.42836C28.6435 1.44649 28.6632 1.46267 28.6845 1.47692C28.7058 1.49116 28.7283 1.50318 28.752 1.513C28.7757 1.52281 28.8001 1.53021 28.8252 1.53521C28.8503 1.54022 28.8757 1.54272 28.9013 1.54272C28.9269 1.54272 28.9523 1.54022 28.9774 1.53521C29.0026 1.53021 29.027 1.52281 29.0506 1.513C29.0743 1.50318 29.0968 1.49116 29.1181 1.47692C29.1394 1.46267 29.1591 1.44649 29.1772 1.42836L30.2695 0.336241C30.2877 0.318124 30.3038 0.298413 30.3181 0.277109C30.3323 0.255805 30.3443 0.233317 30.3541 0.209645C30.3639 0.185973 30.3714 0.161571 30.3764 0.136441C30.3813 0.11131 30.3839 0.0859334 30.3839 0.0603104C30.3839 0.0346875 30.3813 0.00931048 30.3764 -0.0158199C30.3714 -0.0409505 30.3639 -0.0653521 30.3541 -0.0890245C30.3443 -0.112697 30.3323 -0.135185 30.3181 -0.156489C30.3038 -0.177793 30.2877 -0.197503 30.2695 -0.21562L30.2155 -0.269486C30.1974 -0.287608 30.1777 -0.303788 30.1564 -0.318026C30.1351 -0.332265 30.1127 -0.344288 30.089 -0.354096C30.0653 -0.363904 30.0409 -0.371308 30.0158 -0.376308C29.9907 -0.381308 29.9653 -0.383808 29.9397 -0.383808C29.9141 -0.383808 29.8887 -0.381308 29.8636 -0.376308C29.8384 -0.371308 29.814 -0.363904 29.7904 -0.354096C29.7667 -0.344288 29.7442 -0.332265 29.7229 -0.318026C29.7016 -0.303788 29.6819 -0.287608 29.6638 -0.269486L28.5716 0.822702C28.5535 0.840807 28.5373 0.860507 28.5231 0.881802C28.5088 0.903098 28.4968 0.925578 28.487 0.949244C28.4771 0.972911 28.4697 0.997307 28.4647 1.02243C28.4597 1.04756 28.4572 1.07294 28.4572 1.09856C28.4572 1.12418 28.4597 1.14955 28.4647 1.17469C28.4697 1.19982 28.4771 1.22422 28.4869 1.24789C28.4967 1.27156 28.5087 1.29405 28.5229 1.31536C28.5371 1.33666 28.5533 1.35638 28.5714 1.3745L28.6254 1.42836Z" fill="rgb(234,121,72)" fill-rule="nonzero" />
		<path id="矢量 55" d="M21.3947 20.8571C22.2053 20.6857 22.8421 20 22.8421 19.1429C22.8421 18.1714 22.0895 17.4286 21.1053 17.4286C20.8737 17.4286 20.7 17.4857 20.5263 17.5429L20.5263 17.4286C20.5263 16.1714 19.4842 15.1429 18.2105 15.1429C16.9368 15.1429 15.8947 16.1714 15.8947 17.4286C15.8947 17.6571 15.9526 17.8286 15.9526 18.0571C15.8368 18 15.7211 18 15.6053 18C14.7947 18 14.1579 18.6286 14.1579 19.4286C14.1579 20.2286 14.7947 20.8571 15.6053 20.8571L21.3947 20.8571L21.3947 20.8571ZM21.3947 22L15.6053 22C14.1579 22 13 20.8571 13 19.4286C13 18.2857 13.7526 17.3143 14.7368 16.9714C14.9684 15.3143 16.4158 14 18.2105 14C19.7158 14 21.0474 14.9714 21.5105 16.2857C22.9 16.4571 24 17.6571 24 19.1429C24 20.6286 22.8421 21.8286 21.3947 22Z" fill="rgb(234,121,72)" fill-rule="nonzero" />
		<path id="矢量 57" d="M30.8684 16C31.5316 15.85 32.0526 15.25 32.0526 14.5C32.0526 13.65 31.4368 13 30.6316 13C30.4421 13 30.3 13.05 30.1579 13.1L30.1579 13C30.1579 11.9 29.3053 11 28.2632 11C27.2211 11 26.3684 11.9 26.3684 13C26.3684 13.2 26.4158 13.35 26.4158 13.55C26.3211 13.5 26.2263 13.5 26.1316 13.5C25.4684 13.5 24.9474 14.05 24.9474 14.75C24.9474 15.45 25.4684 16 26.1316 16L30.8684 16L30.8684 16ZM30.8684 17L26.1316 17C24.9474 17 24 16 24 14.75C24 13.75 24.6158 12.9 25.4211 12.6C25.6105 11.15 26.7947 10 28.2632 10C29.4947 10 30.5842 10.85 30.9632 12C32.1 12.15 33 13.2 33 14.5C33 15.8 32.0526 16.85 30.8684 17Z" fill="rgb(234,121,72)" fill-rule="nonzero" />
		<path id="矢量 56" d="M14.3421 7.28571C14.8579 7.17857 15.2632 6.75 15.2632 6.21429C15.2632 5.60714 14.7842 5.14286 14.1579 5.14286C14.0105 5.14286 13.9 5.17857 13.7895 5.21429L13.7895 5.14286C13.7895 4.35714 13.1263 3.71429 12.3158 3.71429C11.5053 3.71429 10.8421 4.35714 10.8421 5.14286C10.8421 5.28572 10.8789 5.39286 10.8789 5.53572C10.8053 5.5 10.7316 5.5 10.6579 5.5C10.1421 5.5 9.73684 5.89286 9.73684 6.39286C9.73684 6.89286 10.1421 7.28571 10.6579 7.28571L14.3421 7.28571L14.3421 7.28571ZM14.3421 8L10.6579 8C9.73684 8 9 7.28571 9 6.39286C9 5.67857 9.47895 5.07143 10.1053 4.85714C10.2526 3.82143 11.1737 3 12.3158 3C13.2737 3 14.1211 3.60714 14.4158 4.42857C15.3 4.53571 16 5.28571 16 6.21429C16 7.14286 15.2632 7.89286 14.3421 8Z" fill="rgb(234,121,72)" fill-rule="nonzero" />
		<path id="矢量 55" d="M13.0192 2.78437L13.1317 2.78437C13.2545 2.97188 13.4563 3.39938 13.2817 3.60937C12.1942 3.72187 11.5567 4.28437 11.2942 5.22187C11.1442 5.78437 11.1817 6.45937 11.4442 7.09687C12.5692 9.98437 10.8442 12.1969 10.7692 12.3094C9.49419 13.9969 7.91919 14.3344 6.83169 14.3344C6.11919 14.3344 5.48169 14.1844 5.10669 14.0719L4.24419 15.7219C4.05669 16.0219 3.79419 16.2094 3.49419 16.3219C3.00669 16.4719 2.74419 16.3219 2.55669 16.2469C1.95669 15.9094 1.73169 15.1594 2.03169 14.5594L2.14419 14.3344C2.14419 14.3344 1.65669 14.4844 1.50669 14.4844C0.944189 14.4844 0.456689 14.1469 0.306689 13.6219C0.194189 13.3219 0.231689 12.9844 0.381689 12.6844C0.531689 12.3844 0.831689 12.1969 1.13169 12.0844L1.50669 11.9719L1.09419 11.7469C0.494189 11.4094 0.231689 10.6594 0.569189 10.0594C0.756689 9.75937 1.01919 9.53438 1.31919 9.45938C1.61919 9.34688 1.95669 9.38438 2.25669 9.53438L3.53169 10.2094C3.98169 10.1344 4.39419 10.0219 4.76919 9.87187C3.11919 9.72188 1.84419 9.12187 1.01919 8.03438C-0.0683115 6.57188 -0.293311 4.28438 0.381689 1.84687C0.456689 1.65937 0.606689 1.54688 0.794189 1.58438C0.981689 1.58438 1.13169 1.73437 1.13169 1.92188C1.16919 2.67187 1.50669 3.42188 2.06919 3.87188C2.48169 2.55938 3.41919 1.20937 4.76919 0.084375C4.91919 -0.028125 5.10669 -0.028125 5.25669 0.084375C5.40669 0.196875 5.40669 0.421875 5.33169 0.571875C4.46919 2.07187 4.84419 4.09688 6.19419 5.14688C6.60669 5.48438 6.94419 5.89687 7.20669 6.34688C7.20669 5.70938 7.05669 5.25937 7.05669 5.25937L7.05669 5.18437C6.90669 4.09687 7.09419 3.23438 7.58169 2.63437C8.14419 1.92187 8.93169 1.80937 9.11919 1.77187C9.60669 1.65937 10.0942 1.73437 10.5067 1.95937C11.3692 2.48438 12.1942 2.74688 13.0192 2.78437ZM9.04419 3.90937C9.04419 3.79688 9.08169 3.72188 9.15669 3.64688L9.15669 3.64688C9.26919 3.53438 9.53169 3.53438 9.68169 3.64688C9.75669 3.72188 9.79419 3.79688 9.79419 3.90937C9.79419 4.02187 9.75669 4.09687 9.68169 4.17187C9.60669 4.24687 9.53169 4.28437 9.41919 4.28437C9.30669 4.28437 9.23169 4.24687 9.15669 4.17187C9.08169 4.09687 9.04419 4.02187 9.04419 3.90937ZM5.18169 5.29688C4.35669 4.35938 3.98169 3.04688 4.13169 1.80937L4.13169 1.80937C3.38169 2.67188 2.85669 3.64688 2.63169 4.50938C2.78169 4.62188 2.89419 4.69688 3.04419 4.77188C3.64419 5.10938 4.43169 5.18437 4.46919 5.18437C4.73169 5.18437 4.95669 5.22188 5.18169 5.29688ZM10.6942 7.39687C10.3942 6.60937 10.3192 5.78438 10.5067 5.03438L10.5067 5.03438C10.6567 4.47188 10.9942 3.79688 11.6692 3.34688C11.1817 3.19688 10.6567 2.97188 10.1317 2.67188C9.86919 2.52188 9.56919 2.48438 9.26919 2.55938L9.19419 2.55938C9.19419 2.55938 8.55669 2.63438 8.14419 3.15938C7.76919 3.60938 7.65669 4.24688 7.76919 5.10938C7.80669 5.33438 8.10669 6.38438 7.84419 7.54688C7.80669 7.69688 7.69419 7.80938 7.54419 7.84688C7.39419 7.84688 7.24419 7.77188 7.16919 7.65938C6.15669 5.85938 4.01919 5.89687 3.86919 5.85938L3.79419 5.85938C2.78169 5.63438 2.21919 5.18438 1.99419 4.99688C1.99419 4.95938 1.16919 4.28438 0.831689 3.53438C0.644189 5.14687 0.906689 6.60938 1.65669 7.58438C2.55669 8.78438 4.09419 9.27188 6.23169 9.12188C6.38169 9.08438 6.53169 9.19688 6.60669 9.34688C6.68169 9.49688 6.60669 9.64688 6.49419 9.75938C5.78169 10.3594 4.80669 10.7344 3.60669 10.9594C3.53169 10.9594 3.45669 10.9594 3.38169 10.9219L1.95669 10.2094C1.84419 10.1344 1.69419 10.1344 1.58169 10.1719C1.46919 10.2094 1.35669 10.3219 1.28169 10.4344C1.16919 10.6594 1.28169 10.9594 1.50669 11.1094L2.70669 11.7469C2.81919 11.8219 2.89419 11.9719 2.89419 12.1219C2.89419 12.2719 2.78169 12.4219 2.63169 12.4594L1.35669 12.8344C1.20669 12.8719 1.13169 12.9469 1.05669 13.0594C0.981689 13.1719 0.981689 13.3219 1.01919 13.4344C1.09419 13.6969 1.35669 13.8469 1.61919 13.7719L2.74419 13.4344L2.85669 13.4344C2.96919 13.4344 3.08169 13.5094 3.15669 13.5844C3.23169 13.6969 3.26919 13.8469 3.19419 13.9969L2.66919 15.0094C2.51919 15.2344 2.63169 15.5719 2.85669 15.6844C3.26919 15.7969 3.45669 15.5719 3.53169 15.4594L4.54419 13.5094C4.65669 13.3219 4.84419 13.2469 5.03169 13.3219C5.21919 13.3969 5.93169 13.6594 6.79419 13.6594C8.14419 13.6594 9.26919 13.0594 10.1317 11.8969C10.1692 11.7844 11.6692 9.87187 10.6942 7.39687Z" fill="rgb(234,121,72)" fill-rule="evenodd" transform="matrix(0.998839,0.0481741,-0.0481741,0.998839,-0.210632,7)" />
	</g>
	<path id="" d="M17.0464 16.1812C15.9845 16.1812 15.04 15.9852 14.2129 15.5933C13.388 15.2013 12.7397 14.6328 12.2681 13.8877C11.7964 13.1403 11.5605 12.2528 11.5605 11.2251C11.5605 10.1427 11.7884 9.21191 12.2441 8.43262C12.7021 7.65332 13.3413 7.05631 14.1616 6.6416C14.9842 6.22689 15.923 6.01953 16.978 6.01953C17.4998 6.01953 18.0262 6.0708 18.5571 6.17334C19.0903 6.27588 19.5301 6.40576 19.8765 6.56299L19.8765 8.29932C18.9331 7.95524 18.0558 7.7832 17.2446 7.7832C16.2739 7.7832 15.4867 8.06803 14.8828 8.6377C14.2812 9.20508 13.9805 10.0675 13.9805 11.2251C13.9805 11.8426 14.1297 12.3872 14.4282 12.8589C14.729 13.3283 15.1221 13.694 15.6074 13.9561C16.0928 14.2181 16.6146 14.3674 17.1729 14.4038L17.4805 14.4175C17.9111 14.4175 18.3361 14.3571 18.7554 14.2363C19.1746 14.1156 19.5483 13.9526 19.8765 13.7476L19.8765 15.6787C19.4754 15.8656 19.0482 15.9954 18.5947 16.0684C18.1413 16.1436 17.6252 16.1812 17.0464 16.1812Z" fill="rgb(94,57,57)" fill-rule="nonzero" />
</svg>
