<svg viewBox="0 0 32 21.8878" xmlns="http://www.w3.org/2000/svg" xmlns:xlink="http://www.w3.org/1999/xlink" width="32.000000" height="21.887833" fill="none" customFrame="#000000">
	<defs>
		<filter id="pixso_custom_mask_type_alpha">
			<feColorMatrix type="matrix" values="0 0 0 0 1 0 0 0 0 1 0 0 0 0 1 0 0 0 1 0 " />
		</filter>
	</defs>
	<mask id="mask_17" width="32.000000" height="16.000000" x="0.000000" y="3.000000" maskUnits="userSpaceOnUse">
		<g filter="url(#pixso_custom_mask_type_alpha)">
			<rect id="矩形 27" width="32.000000" height="16.000000" x="0.000000" y="3.000000" rx="8.000000" fill="rgb(8,8,8)" />
		</g>
	</mask>
	<rect id="F" width="32.000000" height="21.887833" x="0.000000" y="0.000000" fill="rgb(255,255,255)" fill-opacity="0" />
	<rect id="矩形 28" width="32.000000" height="16.000000" x="0.000000" y="3.000000" rx="8.000000" fill="rgb(63,63,63)" />
	<g id="蒙版" mask="url(#mask_17)">
		<path id="" d="M4.20557 2.80811L4.20557 3.82178L5.25 3.82178L5.25 6.6123L4.65527 6.6123L4.65527 6.31201L3.21533 6.31201L3.21533 6.6123L2.63965 6.6123L2.63965 3.82178L3.63574 3.82178L3.63574 2.80811L2.44189 2.80811L2.44189 2.2207L3.63574 2.2207L3.63574 1.19385L4.20557 1.21729L4.20557 2.2207L5.59131 2.2207L5.59131 2.80811L4.20557 2.80811ZM0.540527 1.79443L2.26172 1.79443L2.26172 6.07178L0.540527 6.07178L0.540527 1.79443ZM1.08545 5.44775L1.71533 5.44775L1.71533 2.39355L1.08545 2.39355L1.08545 5.44775ZM4.65527 4.40332L3.21533 4.40332L3.21533 5.74219L4.65527 5.74219L4.65527 4.40332ZM10.1096 2.80811L10.1096 3.82178L11.154 3.82178L11.154 6.6123L10.5593 6.6123L10.5593 6.31201L9.11933 6.31201L9.11933 6.6123L8.54365 6.6123L8.54365 3.82178L9.53974 3.82178L9.53974 2.80811L8.34589 2.80811L8.34589 2.2207L9.53974 2.2207L9.53974 1.19385L10.1096 1.21729L10.1096 2.2207L11.4953 2.2207L11.4953 2.80811L10.1096 2.80811ZM6.44453 1.79443L8.16572 1.79443L8.16572 6.07178L6.44453 6.07178L6.44453 1.79443ZM6.98945 5.44775L7.61933 5.44775L7.61933 2.39355L6.98945 2.39355L6.98945 5.44775ZM10.5593 4.40332L9.11933 4.40332L9.11933 5.74219L10.5593 5.74219L10.5593 4.40332ZM16.0136 2.80811L16.0136 3.82178L17.058 3.82178L17.058 6.6123L16.4633 6.6123L16.4633 6.31201L15.0233 6.31201L15.0233 6.6123L14.4476 6.6123L14.4476 3.82178L15.4437 3.82178L15.4437 2.80811L14.2499 2.80811L14.2499 2.2207L15.4437 2.2207L15.4437 1.19385L16.0136 1.21729L16.0136 2.2207L17.3993 2.2207L17.3993 2.80811L16.0136 2.80811ZM12.3485 1.79443L14.0697 1.79443L14.0697 6.07178L12.3485 6.07178L12.3485 1.79443ZM12.8934 5.44775L13.5233 5.44775L13.5233 2.39355L12.8934 2.39355L12.8934 5.44775ZM16.4633 4.40332L15.0233 4.40332L15.0233 5.74219L16.4633 5.74219L16.4633 4.40332ZM21.9176 2.80811L21.9176 3.82178L22.962 3.82178L22.962 6.6123L22.3673 6.6123L22.3673 6.31201L20.9273 6.31201L20.9273 6.6123L20.3517 6.6123L20.3517 3.82178L21.3477 3.82178L21.3477 2.80811L20.1539 2.80811L20.1539 2.2207L21.3477 2.2207L21.3477 1.19385L21.9176 1.21729L21.9176 2.2207L23.3033 2.2207L23.3033 2.80811L21.9176 2.80811ZM18.2525 1.79443L19.9737 1.79443L19.9737 6.07178L18.2525 6.07178L18.2525 1.79443ZM18.7975 5.44775L19.4273 5.44775L19.4273 2.39355L18.7975 2.39355L18.7975 5.44775ZM22.3673 4.40332L20.9273 4.40332L20.9273 5.74219L22.3673 5.74219L22.3673 4.40332ZM27.8216 2.80811L27.8216 3.82178L28.866 3.82178L28.866 6.6123L28.2713 6.6123L28.2713 6.31201L26.8313 6.31201L26.8313 6.6123L26.2556 6.6123L26.2556 3.82178L27.2517 3.82178L27.2517 2.80811L26.0579 2.80811L26.0579 2.2207L27.2517 2.2207L27.2517 1.19385L27.8216 1.21729L27.8216 2.2207L29.2073 2.2207L29.2073 2.80811L27.8216 2.80811ZM24.1565 1.79443L25.8777 1.79443L25.8777 6.07178L24.1565 6.07178L24.1565 1.79443ZM24.7015 5.44775L25.3313 5.44775L25.3313 2.39355L24.7015 2.39355L24.7015 5.44775ZM28.2713 4.40332L26.8313 4.40332L26.8313 5.74219L28.2713 5.74219L28.2713 4.40332ZM33.7256 2.80811L33.7256 3.82178L34.77 3.82178L34.77 6.6123L34.1753 6.6123L34.1753 6.31201L32.7353 6.31201L32.7353 6.6123L32.1596 6.6123L32.1596 3.82178L33.1557 3.82178L33.1557 2.80811L31.9619 2.80811L31.9619 2.2207L33.1557 2.2207L33.1557 1.19385L33.7256 1.21729L33.7256 2.2207L35.1113 2.2207L35.1113 2.80811L33.7256 2.80811ZM30.0605 1.79443L31.7817 1.79443L31.7817 6.07178L30.0605 6.07178L30.0605 1.79443ZM30.6054 5.44775L31.2353 5.44775L31.2353 2.39355L30.6054 2.39355L30.6054 5.44775ZM34.1753 4.40332L32.7353 4.40332L32.7353 5.74219L34.1753 5.74219L34.1753 4.40332ZM39.6296 2.80811L39.6296 3.82178L40.674 3.82178L40.674 6.6123L40.0793 6.6123L40.0793 6.31201L38.6393 6.31201L38.6393 6.6123L38.0636 6.6123L38.0636 3.82178L39.0597 3.82178L39.0597 2.80811L37.8659 2.80811L37.8659 2.2207L39.0597 2.2207L39.0597 1.19385L39.6296 1.21729L39.6296 2.2207L41.0153 2.2207L41.0153 2.80811L39.6296 2.80811ZM35.9645 1.79443L37.6857 1.79443L37.6857 6.07178L35.9645 6.07178L35.9645 1.79443ZM36.5094 5.44775L37.1393 5.44775L37.1393 2.39355L36.5094 2.39355L36.5094 5.44775ZM40.0793 4.40332L38.6393 4.40332L38.6393 5.74219L40.0793 5.74219L40.0793 4.40332ZM45.5336 2.80811L45.5336 3.82178L46.578 3.82178L46.578 6.6123L45.9833 6.6123L45.9833 6.31201L44.5433 6.31201L44.5433 6.6123L43.9676 6.6123L43.9676 3.82178L44.9637 3.82178L44.9637 2.80811L43.7699 2.80811L43.7699 2.2207L44.9637 2.2207L44.9637 1.19385L45.5336 1.21729L45.5336 2.2207L46.9193 2.2207L46.9193 2.80811L45.5336 2.80811ZM41.8685 1.79443L43.5897 1.79443L43.5897 6.07178L41.8685 6.07178L41.8685 1.79443ZM42.4134 5.44775L43.0433 5.44775L43.0433 2.39355L42.4134 2.39355L42.4134 5.44775ZM45.9833 4.40332L44.5433 4.40332L44.5433 5.74219L45.9833 5.74219L45.9833 4.40332ZM51.4376 2.80811L51.4376 3.82178L52.482 3.82178L52.482 6.6123L51.8873 6.6123L51.8873 6.31201L50.4473 6.31201L50.4473 6.6123L49.8716 6.6123L49.8716 3.82178L50.8677 3.82178L50.8677 2.80811L49.6739 2.80811L49.6739 2.2207L50.8677 2.2207L50.8677 1.19385L51.4376 1.21729L51.4376 2.2207L52.8233 2.2207L52.8233 2.80811L51.4376 2.80811ZM47.7725 1.79443L49.4937 1.79443L49.4937 6.07178L47.7725 6.07178L47.7725 1.79443ZM48.3174 5.44775L48.9473 5.44775L48.9473 2.39355L48.3174 2.39355L48.3174 5.44775ZM51.8873 4.40332L50.4473 4.40332L50.4473 5.74219L51.8873 5.74219L51.8873 4.40332ZM57.3416 2.80811L57.3416 3.82178L58.386 3.82178L58.386 6.6123L57.7913 6.6123L57.7913 6.31201L56.3513 6.31201L56.3513 6.6123L55.7756 6.6123L55.7756 3.82178L56.7717 3.82178L56.7717 2.80811L55.5779 2.80811L55.5779 2.2207L56.7717 2.2207L56.7717 1.19385L57.3416 1.21729L57.3416 2.2207L58.7273 2.2207L58.7273 2.80811L57.3416 2.80811ZM53.6765 1.79443L55.3977 1.79443L55.3977 6.07178L53.6765 6.07178L53.6765 1.79443ZM54.2214 5.44775L54.8513 5.44775L54.8513 2.39355L54.2214 2.39355L54.2214 5.44775ZM57.7913 4.40332L56.3513 4.40332L56.3513 5.74219L57.7913 5.74219L57.7913 4.40332ZM63.2456 2.80811L63.2456 3.82178L64.29 3.82178L64.29 6.6123L63.6953 6.6123L63.6953 6.31201L62.2553 6.31201L62.2553 6.6123L61.6796 6.6123L61.6796 3.82178L62.6757 3.82178L62.6757 2.80811L61.4819 2.80811L61.4819 2.2207L62.6757 2.2207L62.6757 1.19385L63.2456 1.21729L63.2456 2.2207L64.6313 2.2207L64.6313 2.80811L63.2456 2.80811ZM59.5805 1.79443L61.3017 1.79443L61.3017 6.07178L59.5805 6.07178L59.5805 1.79443ZM60.1254 5.44775L60.7553 5.44775L60.7553 2.39355L60.1254 2.39355L60.1254 5.44775ZM63.6953 4.40332L62.2553 4.40332L62.2553 5.74219L63.6953 5.74219L63.6953 4.40332ZM69.1496 2.80811L69.1496 3.82178L70.194 3.82178L70.194 6.6123L69.5993 6.6123L69.5993 6.31201L68.1593 6.31201L68.1593 6.6123L67.5836 6.6123L67.5836 3.82178L68.5797 3.82178L68.5797 2.80811L67.3859 2.80811L67.3859 2.2207L68.5797 2.2207L68.5797 1.19385L69.1496 1.21729L69.1496 2.2207L70.5353 2.2207L70.5353 2.80811L69.1496 2.80811ZM65.4845 1.79443L67.2057 1.79443L67.2057 6.07178L65.4845 6.07178L65.4845 1.79443ZM66.0294 5.44775L66.6593 5.44775L66.6593 2.39355L66.0294 2.39355L66.0294 5.44775ZM69.5993 4.40332L68.1593 4.40332L68.1593 5.74219L69.5993 5.74219L69.5993 4.40332Z" opacity="0" fill="rgb(79,78,78)" fill-rule="nonzero" transform="matrix(0.926762,-0.375648,0.375648,0.926762,-18,20.671)" />
		<path id="" d="M4.20557 2.80811L4.20557 3.82178L5.25 3.82178L5.25 6.6123L4.65527 6.6123L4.65527 6.31201L3.21533 6.31201L3.21533 6.6123L2.63965 6.6123L2.63965 3.82178L3.63574 3.82178L3.63574 2.80811L2.44189 2.80811L2.44189 2.2207L3.63574 2.2207L3.63574 1.19385L4.20557 1.21729L4.20557 2.2207L5.59131 2.2207L5.59131 2.80811L4.20557 2.80811ZM0.540527 1.79443L2.26172 1.79443L2.26172 6.07178L0.540527 6.07178L0.540527 1.79443ZM1.08545 5.44775L1.71533 5.44775L1.71533 2.39355L1.08545 2.39355L1.08545 5.44775ZM4.65527 4.40332L3.21533 4.40332L3.21533 5.74219L4.65527 5.74219L4.65527 4.40332ZM10.1096 2.80811L10.1096 3.82178L11.154 3.82178L11.154 6.6123L10.5593 6.6123L10.5593 6.31201L9.11933 6.31201L9.11933 6.6123L8.54365 6.6123L8.54365 3.82178L9.53974 3.82178L9.53974 2.80811L8.34589 2.80811L8.34589 2.2207L9.53974 2.2207L9.53974 1.19385L10.1096 1.21729L10.1096 2.2207L11.4953 2.2207L11.4953 2.80811L10.1096 2.80811ZM6.44453 1.79443L8.16572 1.79443L8.16572 6.07178L6.44453 6.07178L6.44453 1.79443ZM6.98945 5.44775L7.61933 5.44775L7.61933 2.39355L6.98945 2.39355L6.98945 5.44775ZM10.5593 4.40332L9.11933 4.40332L9.11933 5.74219L10.5593 5.74219L10.5593 4.40332ZM16.0136 2.80811L16.0136 3.82178L17.058 3.82178L17.058 6.6123L16.4633 6.6123L16.4633 6.31201L15.0233 6.31201L15.0233 6.6123L14.4476 6.6123L14.4476 3.82178L15.4437 3.82178L15.4437 2.80811L14.2499 2.80811L14.2499 2.2207L15.4437 2.2207L15.4437 1.19385L16.0136 1.21729L16.0136 2.2207L17.3993 2.2207L17.3993 2.80811L16.0136 2.80811ZM12.3485 1.79443L14.0697 1.79443L14.0697 6.07178L12.3485 6.07178L12.3485 1.79443ZM12.8934 5.44775L13.5233 5.44775L13.5233 2.39355L12.8934 2.39355L12.8934 5.44775ZM16.4633 4.40332L15.0233 4.40332L15.0233 5.74219L16.4633 5.74219L16.4633 4.40332ZM21.9176 2.80811L21.9176 3.82178L22.962 3.82178L22.962 6.6123L22.3673 6.6123L22.3673 6.31201L20.9273 6.31201L20.9273 6.6123L20.3517 6.6123L20.3517 3.82178L21.3477 3.82178L21.3477 2.80811L20.1539 2.80811L20.1539 2.2207L21.3477 2.2207L21.3477 1.19385L21.9176 1.21729L21.9176 2.2207L23.3033 2.2207L23.3033 2.80811L21.9176 2.80811ZM18.2525 1.79443L19.9737 1.79443L19.9737 6.07178L18.2525 6.07178L18.2525 1.79443ZM18.7975 5.44775L19.4273 5.44775L19.4273 2.39355L18.7975 2.39355L18.7975 5.44775ZM22.3673 4.40332L20.9273 4.40332L20.9273 5.74219L22.3673 5.74219L22.3673 4.40332ZM27.8216 2.80811L27.8216 3.82178L28.866 3.82178L28.866 6.6123L28.2713 6.6123L28.2713 6.31201L26.8313 6.31201L26.8313 6.6123L26.2556 6.6123L26.2556 3.82178L27.2517 3.82178L27.2517 2.80811L26.0579 2.80811L26.0579 2.2207L27.2517 2.2207L27.2517 1.19385L27.8216 1.21729L27.8216 2.2207L29.2073 2.2207L29.2073 2.80811L27.8216 2.80811ZM24.1565 1.79443L25.8777 1.79443L25.8777 6.07178L24.1565 6.07178L24.1565 1.79443ZM24.7015 5.44775L25.3313 5.44775L25.3313 2.39355L24.7015 2.39355L24.7015 5.44775ZM28.2713 4.40332L26.8313 4.40332L26.8313 5.74219L28.2713 5.74219L28.2713 4.40332ZM33.7256 2.80811L33.7256 3.82178L34.77 3.82178L34.77 6.6123L34.1753 6.6123L34.1753 6.31201L32.7353 6.31201L32.7353 6.6123L32.1596 6.6123L32.1596 3.82178L33.1557 3.82178L33.1557 2.80811L31.9619 2.80811L31.9619 2.2207L33.1557 2.2207L33.1557 1.19385L33.7256 1.21729L33.7256 2.2207L35.1113 2.2207L35.1113 2.80811L33.7256 2.80811ZM30.0605 1.79443L31.7817 1.79443L31.7817 6.07178L30.0605 6.07178L30.0605 1.79443ZM30.6054 5.44775L31.2353 5.44775L31.2353 2.39355L30.6054 2.39355L30.6054 5.44775ZM34.1753 4.40332L32.7353 4.40332L32.7353 5.74219L34.1753 5.74219L34.1753 4.40332ZM39.6296 2.80811L39.6296 3.82178L40.674 3.82178L40.674 6.6123L40.0793 6.6123L40.0793 6.31201L38.6393 6.31201L38.6393 6.6123L38.0636 6.6123L38.0636 3.82178L39.0597 3.82178L39.0597 2.80811L37.8659 2.80811L37.8659 2.2207L39.0597 2.2207L39.0597 1.19385L39.6296 1.21729L39.6296 2.2207L41.0153 2.2207L41.0153 2.80811L39.6296 2.80811ZM35.9645 1.79443L37.6857 1.79443L37.6857 6.07178L35.9645 6.07178L35.9645 1.79443ZM36.5094 5.44775L37.1393 5.44775L37.1393 2.39355L36.5094 2.39355L36.5094 5.44775ZM40.0793 4.40332L38.6393 4.40332L38.6393 5.74219L40.0793 5.74219L40.0793 4.40332ZM45.5336 2.80811L45.5336 3.82178L46.578 3.82178L46.578 6.6123L45.9833 6.6123L45.9833 6.31201L44.5433 6.31201L44.5433 6.6123L43.9676 6.6123L43.9676 3.82178L44.9637 3.82178L44.9637 2.80811L43.7699 2.80811L43.7699 2.2207L44.9637 2.2207L44.9637 1.19385L45.5336 1.21729L45.5336 2.2207L46.9193 2.2207L46.9193 2.80811L45.5336 2.80811ZM41.8685 1.79443L43.5897 1.79443L43.5897 6.07178L41.8685 6.07178L41.8685 1.79443ZM42.4134 5.44775L43.0433 5.44775L43.0433 2.39355L42.4134 2.39355L42.4134 5.44775ZM45.9833 4.40332L44.5433 4.40332L44.5433 5.74219L45.9833 5.74219L45.9833 4.40332ZM51.4376 2.80811L51.4376 3.82178L52.482 3.82178L52.482 6.6123L51.8873 6.6123L51.8873 6.31201L50.4473 6.31201L50.4473 6.6123L49.8716 6.6123L49.8716 3.82178L50.8677 3.82178L50.8677 2.80811L49.6739 2.80811L49.6739 2.2207L50.8677 2.2207L50.8677 1.19385L51.4376 1.21729L51.4376 2.2207L52.8233 2.2207L52.8233 2.80811L51.4376 2.80811ZM47.7725 1.79443L49.4937 1.79443L49.4937 6.07178L47.7725 6.07178L47.7725 1.79443ZM48.3174 5.44775L48.9473 5.44775L48.9473 2.39355L48.3174 2.39355L48.3174 5.44775ZM51.8873 4.40332L50.4473 4.40332L50.4473 5.74219L51.8873 5.74219L51.8873 4.40332ZM57.3416 2.80811L57.3416 3.82178L58.386 3.82178L58.386 6.6123L57.7913 6.6123L57.7913 6.31201L56.3513 6.31201L56.3513 6.6123L55.7756 6.6123L55.7756 3.82178L56.7717 3.82178L56.7717 2.80811L55.5779 2.80811L55.5779 2.2207L56.7717 2.2207L56.7717 1.19385L57.3416 1.21729L57.3416 2.2207L58.7273 2.2207L58.7273 2.80811L57.3416 2.80811ZM53.6765 1.79443L55.3977 1.79443L55.3977 6.07178L53.6765 6.07178L53.6765 1.79443ZM54.2214 5.44775L54.8513 5.44775L54.8513 2.39355L54.2214 2.39355L54.2214 5.44775ZM57.7913 4.40332L56.3513 4.40332L56.3513 5.74219L57.7913 5.74219L57.7913 4.40332ZM63.2456 2.80811L63.2456 3.82178L64.29 3.82178L64.29 6.6123L63.6953 6.6123L63.6953 6.31201L62.2553 6.31201L62.2553 6.6123L61.6796 6.6123L61.6796 3.82178L62.6757 3.82178L62.6757 2.80811L61.4819 2.80811L61.4819 2.2207L62.6757 2.2207L62.6757 1.19385L63.2456 1.21729L63.2456 2.2207L64.6313 2.2207L64.6313 2.80811L63.2456 2.80811ZM59.5805 1.79443L61.3017 1.79443L61.3017 6.07178L59.5805 6.07178L59.5805 1.79443ZM60.1254 5.44775L60.7553 5.44775L60.7553 2.39355L60.1254 2.39355L60.1254 5.44775ZM63.6953 4.40332L62.2553 4.40332L62.2553 5.74219L63.6953 5.74219L63.6953 4.40332ZM69.1496 2.80811L69.1496 3.82178L70.194 3.82178L70.194 6.6123L69.5993 6.6123L69.5993 6.31201L68.1593 6.31201L68.1593 6.6123L67.5836 6.6123L67.5836 3.82178L68.5797 3.82178L68.5797 2.80811L67.3859 2.80811L67.3859 2.2207L68.5797 2.2207L68.5797 1.19385L69.1496 1.21729L69.1496 2.2207L70.5353 2.2207L70.5353 2.80811L69.1496 2.80811ZM65.4845 1.79443L67.2057 1.79443L67.2057 6.07178L65.4845 6.07178L65.4845 1.79443ZM66.0294 5.44775L66.6593 5.44775L66.6593 2.39355L66.0294 2.39355L66.0294 5.44775ZM69.5993 4.40332L68.1593 4.40332L68.1593 5.74219L69.5993 5.74219L69.5993 4.40332Z" opacity="0" fill="rgb(79,78,78)" fill-rule="nonzero" transform="matrix(0.926762,-0.375648,0.375648,0.926762,-17,13.671)" />
		<path id="" d="M4.20557 2.80811L4.20557 3.82178L5.25 3.82178L5.25 6.6123L4.65527 6.6123L4.65527 6.31201L3.21533 6.31201L3.21533 6.6123L2.63965 6.6123L2.63965 3.82178L3.63574 3.82178L3.63574 2.80811L2.44189 2.80811L2.44189 2.2207L3.63574 2.2207L3.63574 1.19385L4.20557 1.21729L4.20557 2.2207L5.59131 2.2207L5.59131 2.80811L4.20557 2.80811ZM0.540527 1.79443L2.26172 1.79443L2.26172 6.07178L0.540527 6.07178L0.540527 1.79443ZM1.08545 5.44775L1.71533 5.44775L1.71533 2.39355L1.08545 2.39355L1.08545 5.44775ZM4.65527 4.40332L3.21533 4.40332L3.21533 5.74219L4.65527 5.74219L4.65527 4.40332ZM10.1096 2.80811L10.1096 3.82178L11.154 3.82178L11.154 6.6123L10.5593 6.6123L10.5593 6.31201L9.11933 6.31201L9.11933 6.6123L8.54365 6.6123L8.54365 3.82178L9.53974 3.82178L9.53974 2.80811L8.34589 2.80811L8.34589 2.2207L9.53974 2.2207L9.53974 1.19385L10.1096 1.21729L10.1096 2.2207L11.4953 2.2207L11.4953 2.80811L10.1096 2.80811ZM6.44453 1.79443L8.16572 1.79443L8.16572 6.07178L6.44453 6.07178L6.44453 1.79443ZM6.98945 5.44775L7.61933 5.44775L7.61933 2.39355L6.98945 2.39355L6.98945 5.44775ZM10.5593 4.40332L9.11933 4.40332L9.11933 5.74219L10.5593 5.74219L10.5593 4.40332ZM16.0136 2.80811L16.0136 3.82178L17.058 3.82178L17.058 6.6123L16.4633 6.6123L16.4633 6.31201L15.0233 6.31201L15.0233 6.6123L14.4476 6.6123L14.4476 3.82178L15.4437 3.82178L15.4437 2.80811L14.2499 2.80811L14.2499 2.2207L15.4437 2.2207L15.4437 1.19385L16.0136 1.21729L16.0136 2.2207L17.3993 2.2207L17.3993 2.80811L16.0136 2.80811ZM12.3485 1.79443L14.0697 1.79443L14.0697 6.07178L12.3485 6.07178L12.3485 1.79443ZM12.8934 5.44775L13.5233 5.44775L13.5233 2.39355L12.8934 2.39355L12.8934 5.44775ZM16.4633 4.40332L15.0233 4.40332L15.0233 5.74219L16.4633 5.74219L16.4633 4.40332ZM21.9176 2.80811L21.9176 3.82178L22.962 3.82178L22.962 6.6123L22.3673 6.6123L22.3673 6.31201L20.9273 6.31201L20.9273 6.6123L20.3517 6.6123L20.3517 3.82178L21.3477 3.82178L21.3477 2.80811L20.1539 2.80811L20.1539 2.2207L21.3477 2.2207L21.3477 1.19385L21.9176 1.21729L21.9176 2.2207L23.3033 2.2207L23.3033 2.80811L21.9176 2.80811ZM18.2525 1.79443L19.9737 1.79443L19.9737 6.07178L18.2525 6.07178L18.2525 1.79443ZM18.7975 5.44775L19.4273 5.44775L19.4273 2.39355L18.7975 2.39355L18.7975 5.44775ZM22.3673 4.40332L20.9273 4.40332L20.9273 5.74219L22.3673 5.74219L22.3673 4.40332ZM27.8216 2.80811L27.8216 3.82178L28.866 3.82178L28.866 6.6123L28.2713 6.6123L28.2713 6.31201L26.8313 6.31201L26.8313 6.6123L26.2556 6.6123L26.2556 3.82178L27.2517 3.82178L27.2517 2.80811L26.0579 2.80811L26.0579 2.2207L27.2517 2.2207L27.2517 1.19385L27.8216 1.21729L27.8216 2.2207L29.2073 2.2207L29.2073 2.80811L27.8216 2.80811ZM24.1565 1.79443L25.8777 1.79443L25.8777 6.07178L24.1565 6.07178L24.1565 1.79443ZM24.7015 5.44775L25.3313 5.44775L25.3313 2.39355L24.7015 2.39355L24.7015 5.44775ZM28.2713 4.40332L26.8313 4.40332L26.8313 5.74219L28.2713 5.74219L28.2713 4.40332ZM33.7256 2.80811L33.7256 3.82178L34.77 3.82178L34.77 6.6123L34.1753 6.6123L34.1753 6.31201L32.7353 6.31201L32.7353 6.6123L32.1596 6.6123L32.1596 3.82178L33.1557 3.82178L33.1557 2.80811L31.9619 2.80811L31.9619 2.2207L33.1557 2.2207L33.1557 1.19385L33.7256 1.21729L33.7256 2.2207L35.1113 2.2207L35.1113 2.80811L33.7256 2.80811ZM30.0605 1.79443L31.7817 1.79443L31.7817 6.07178L30.0605 6.07178L30.0605 1.79443ZM30.6054 5.44775L31.2353 5.44775L31.2353 2.39355L30.6054 2.39355L30.6054 5.44775ZM34.1753 4.40332L32.7353 4.40332L32.7353 5.74219L34.1753 5.74219L34.1753 4.40332ZM39.6296 2.80811L39.6296 3.82178L40.674 3.82178L40.674 6.6123L40.0793 6.6123L40.0793 6.31201L38.6393 6.31201L38.6393 6.6123L38.0636 6.6123L38.0636 3.82178L39.0597 3.82178L39.0597 2.80811L37.8659 2.80811L37.8659 2.2207L39.0597 2.2207L39.0597 1.19385L39.6296 1.21729L39.6296 2.2207L41.0153 2.2207L41.0153 2.80811L39.6296 2.80811ZM35.9645 1.79443L37.6857 1.79443L37.6857 6.07178L35.9645 6.07178L35.9645 1.79443ZM36.5094 5.44775L37.1393 5.44775L37.1393 2.39355L36.5094 2.39355L36.5094 5.44775ZM40.0793 4.40332L38.6393 4.40332L38.6393 5.74219L40.0793 5.74219L40.0793 4.40332ZM45.5336 2.80811L45.5336 3.82178L46.578 3.82178L46.578 6.6123L45.9833 6.6123L45.9833 6.31201L44.5433 6.31201L44.5433 6.6123L43.9676 6.6123L43.9676 3.82178L44.9637 3.82178L44.9637 2.80811L43.7699 2.80811L43.7699 2.2207L44.9637 2.2207L44.9637 1.19385L45.5336 1.21729L45.5336 2.2207L46.9193 2.2207L46.9193 2.80811L45.5336 2.80811ZM41.8685 1.79443L43.5897 1.79443L43.5897 6.07178L41.8685 6.07178L41.8685 1.79443ZM42.4134 5.44775L43.0433 5.44775L43.0433 2.39355L42.4134 2.39355L42.4134 5.44775ZM45.9833 4.40332L44.5433 4.40332L44.5433 5.74219L45.9833 5.74219L45.9833 4.40332ZM51.4376 2.80811L51.4376 3.82178L52.482 3.82178L52.482 6.6123L51.8873 6.6123L51.8873 6.31201L50.4473 6.31201L50.4473 6.6123L49.8716 6.6123L49.8716 3.82178L50.8677 3.82178L50.8677 2.80811L49.6739 2.80811L49.6739 2.2207L50.8677 2.2207L50.8677 1.19385L51.4376 1.21729L51.4376 2.2207L52.8233 2.2207L52.8233 2.80811L51.4376 2.80811ZM47.7725 1.79443L49.4937 1.79443L49.4937 6.07178L47.7725 6.07178L47.7725 1.79443ZM48.3174 5.44775L48.9473 5.44775L48.9473 2.39355L48.3174 2.39355L48.3174 5.44775ZM51.8873 4.40332L50.4473 4.40332L50.4473 5.74219L51.8873 5.74219L51.8873 4.40332ZM57.3416 2.80811L57.3416 3.82178L58.386 3.82178L58.386 6.6123L57.7913 6.6123L57.7913 6.31201L56.3513 6.31201L56.3513 6.6123L55.7756 6.6123L55.7756 3.82178L56.7717 3.82178L56.7717 2.80811L55.5779 2.80811L55.5779 2.2207L56.7717 2.2207L56.7717 1.19385L57.3416 1.21729L57.3416 2.2207L58.7273 2.2207L58.7273 2.80811L57.3416 2.80811ZM53.6765 1.79443L55.3977 1.79443L55.3977 6.07178L53.6765 6.07178L53.6765 1.79443ZM54.2214 5.44775L54.8513 5.44775L54.8513 2.39355L54.2214 2.39355L54.2214 5.44775ZM57.7913 4.40332L56.3513 4.40332L56.3513 5.74219L57.7913 5.74219L57.7913 4.40332ZM63.2456 2.80811L63.2456 3.82178L64.29 3.82178L64.29 6.6123L63.6953 6.6123L63.6953 6.31201L62.2553 6.31201L62.2553 6.6123L61.6796 6.6123L61.6796 3.82178L62.6757 3.82178L62.6757 2.80811L61.4819 2.80811L61.4819 2.2207L62.6757 2.2207L62.6757 1.19385L63.2456 1.21729L63.2456 2.2207L64.6313 2.2207L64.6313 2.80811L63.2456 2.80811ZM59.5805 1.79443L61.3017 1.79443L61.3017 6.07178L59.5805 6.07178L59.5805 1.79443ZM60.1254 5.44775L60.7553 5.44775L60.7553 2.39355L60.1254 2.39355L60.1254 5.44775ZM63.6953 4.40332L62.2553 4.40332L62.2553 5.74219L63.6953 5.74219L63.6953 4.40332ZM69.1496 2.80811L69.1496 3.82178L70.194 3.82178L70.194 6.6123L69.5993 6.6123L69.5993 6.31201L68.1593 6.31201L68.1593 6.6123L67.5836 6.6123L67.5836 3.82178L68.5797 3.82178L68.5797 2.80811L67.3859 2.80811L67.3859 2.2207L68.5797 2.2207L68.5797 1.19385L69.1496 1.21729L69.1496 2.2207L70.5353 2.2207L70.5353 2.80811L69.1496 2.80811ZM65.4845 1.79443L67.2057 1.79443L67.2057 6.07178L65.4845 6.07178L65.4845 1.79443ZM66.0294 5.44775L66.6593 5.44775L66.6593 2.39355L66.0294 2.39355L66.0294 5.44775ZM69.5993 4.40332L68.1593 4.40332L68.1593 5.74219L69.5993 5.74219L69.5993 4.40332Z" opacity="0" fill="rgb(79,78,78)" fill-rule="nonzero" transform="matrix(0.917504,-0.397727,0.397727,0.917504,-14,26.2386)" />
		<path id="矢量 55" d="M19.3947 18.8571C20.2053 18.6857 20.8421 18 20.8421 17.1429C20.8421 16.1714 20.0895 15.4286 19.1053 15.4286C18.8737 15.4286 18.7 15.4857 18.5263 15.5429L18.5263 15.4286C18.5263 14.1714 17.4842 13.1429 16.2105 13.1429C14.9368 13.1429 13.8947 14.1714 13.8947 15.4286C13.8947 15.6571 13.9526 15.8286 13.9526 16.0571C13.8368 16 13.7211 16 13.6053 16C12.7947 16 12.1579 16.6286 12.1579 17.4286C12.1579 18.2286 12.7947 18.8571 13.6053 18.8571L19.3947 18.8571L19.3947 18.8571ZM19.3947 20L13.6053 20C12.1579 20 11 18.8571 11 17.4286C11 16.2857 11.7526 15.3143 12.7368 14.9714C12.9684 13.3143 14.4158 12 16.2105 12C17.7158 12 19.0474 12.9714 19.5105 14.2857C20.9 14.4571 22 15.6571 22 17.1429C22 18.6286 20.8421 19.8286 19.3947 20Z" fill="rgb(79,78,78)" fill-rule="nonzero" />
		<path id="矢量 57" d="M30.8684 16C31.5316 15.85 32.0526 15.25 32.0526 14.5C32.0526 13.65 31.4368 13 30.6316 13C30.4421 13 30.3 13.05 30.1579 13.1L30.1579 13C30.1579 11.9 29.3053 11 28.2632 11C27.2211 11 26.3684 11.9 26.3684 13C26.3684 13.2 26.4158 13.35 26.4158 13.55C26.3211 13.5 26.2263 13.5 26.1316 13.5C25.4684 13.5 24.9474 14.05 24.9474 14.75C24.9474 15.45 25.4684 16 26.1316 16L30.8684 16L30.8684 16ZM30.8684 17L26.1316 17C24.9474 17 24 16 24 14.75C24 13.75 24.6158 12.9 25.4211 12.6C25.6105 11.15 26.7947 10 28.2632 10C29.4947 10 30.5842 10.85 30.9632 12C32.1 12.15 33 13.2 33 14.5C33 15.8 32.0526 16.85 30.8684 17Z" fill="rgb(79,78,78)" fill-rule="nonzero" />
		<path id="矢量 56" d="M24.3947 8.71429C25.2053 8.52143 25.8421 7.75 25.8421 6.78571C25.8421 5.69286 25.0895 4.85714 24.1053 4.85714C23.8737 4.85714 23.7 4.92143 23.5263 4.98571L23.5263 4.85714C23.5263 3.44286 22.4842 2.28571 21.2105 2.28571C19.9368 2.28571 18.8947 3.44286 18.8947 4.85714C18.8947 5.11429 18.9526 5.30714 18.9526 5.56429C18.8368 5.5 18.7211 5.5 18.6053 5.5C17.7947 5.5 17.1579 6.20714 17.1579 7.10714C17.1579 8.00714 17.7947 8.71429 18.6053 8.71429L24.3947 8.71429L24.3947 8.71429ZM24.3947 10L18.6053 10C17.1579 10 16 8.71429 16 7.10714C16 5.82143 16.7526 4.72857 17.7368 4.34286C17.9684 2.47857 19.4158 1 21.2105 1C22.7158 1 24.0474 2.09286 24.5105 3.57143C25.9 3.76429 27 5.11429 27 6.78571C27 8.45714 25.8421 9.80714 24.3947 10Z" fill="rgb(79,78,78)" fill-rule="nonzero" />
		<path id="矢量 55" d="M13.0192 2.78437L13.1317 2.78437C13.2545 2.97188 13.4563 3.39938 13.2817 3.60937C12.1942 3.72187 11.5567 4.28437 11.2942 5.22187C11.1442 5.78437 11.1817 6.45937 11.4442 7.09687C12.5692 9.98437 10.8442 12.1969 10.7692 12.3094C9.49419 13.9969 7.91919 14.3344 6.83169 14.3344C6.11919 14.3344 5.48169 14.1844 5.10669 14.0719L4.24419 15.7219C4.05669 16.0219 3.79419 16.2094 3.49419 16.3219C3.00669 16.4719 2.74419 16.3219 2.55669 16.2469C1.95669 15.9094 1.73169 15.1594 2.03169 14.5594L2.14419 14.3344C2.14419 14.3344 1.65669 14.4844 1.50669 14.4844C0.944189 14.4844 0.456689 14.1469 0.306689 13.6219C0.194189 13.3219 0.231689 12.9844 0.381689 12.6844C0.531689 12.3844 0.831689 12.1969 1.13169 12.0844L1.50669 11.9719L1.09419 11.7469C0.494189 11.4094 0.231689 10.6594 0.569189 10.0594C0.756689 9.75937 1.01919 9.53438 1.31919 9.45938C1.61919 9.34688 1.95669 9.38438 2.25669 9.53438L3.53169 10.2094C3.98169 10.1344 4.39419 10.0219 4.76919 9.87187C3.11919 9.72188 1.84419 9.12187 1.01919 8.03438C-0.0683115 6.57188 -0.293311 4.28438 0.381689 1.84687C0.456689 1.65937 0.606689 1.54688 0.794189 1.58438C0.981689 1.58438 1.13169 1.73437 1.13169 1.92188C1.16919 2.67187 1.50669 3.42188 2.06919 3.87188C2.48169 2.55938 3.41919 1.20937 4.76919 0.084375C4.91919 -0.028125 5.10669 -0.028125 5.25669 0.084375C5.40669 0.196875 5.40669 0.421875 5.33169 0.571875C4.46919 2.07187 4.84419 4.09688 6.19419 5.14688C6.60669 5.48438 6.94419 5.89687 7.20669 6.34688C7.20669 5.70938 7.05669 5.25937 7.05669 5.25937L7.05669 5.18437C6.90669 4.09687 7.09419 3.23438 7.58169 2.63437C8.14419 1.92187 8.93169 1.80937 9.11919 1.77187C9.60669 1.65937 10.0942 1.73437 10.5067 1.95937C11.3692 2.48438 12.1942 2.74688 13.0192 2.78437ZM9.04419 3.90937C9.04419 3.79688 9.08169 3.72188 9.15669 3.64688L9.15669 3.64688C9.26919 3.53438 9.53169 3.53438 9.68169 3.64688C9.75669 3.72188 9.79419 3.79688 9.79419 3.90937C9.79419 4.02187 9.75669 4.09687 9.68169 4.17187C9.60669 4.24687 9.53169 4.28437 9.41919 4.28437C9.30669 4.28437 9.23169 4.24687 9.15669 4.17187C9.08169 4.09687 9.04419 4.02187 9.04419 3.90937ZM5.18169 5.29688C4.35669 4.35938 3.98169 3.04688 4.13169 1.80937L4.13169 1.80937C3.38169 2.67188 2.85669 3.64688 2.63169 4.50938C2.78169 4.62188 2.89419 4.69688 3.04419 4.77188C3.64419 5.10938 4.43169 5.18437 4.46919 5.18437C4.73169 5.18437 4.95669 5.22188 5.18169 5.29688ZM10.6942 7.39687C10.3942 6.60937 10.3192 5.78438 10.5067 5.03438L10.5067 5.03438C10.6567 4.47188 10.9942 3.79688 11.6692 3.34688C11.1817 3.19688 10.6567 2.97188 10.1317 2.67188C9.86919 2.52188 9.56919 2.48438 9.26919 2.55938L9.19419 2.55938C9.19419 2.55938 8.55669 2.63438 8.14419 3.15938C7.76919 3.60938 7.65669 4.24688 7.76919 5.10938C7.80669 5.33438 8.10669 6.38438 7.84419 7.54688C7.80669 7.69688 7.69419 7.80938 7.54419 7.84688C7.39419 7.84688 7.24419 7.77188 7.16919 7.65938C6.15669 5.85938 4.01919 5.89687 3.86919 5.85938L3.79419 5.85938C2.78169 5.63438 2.21919 5.18438 1.99419 4.99688C1.99419 4.95938 1.16919 4.28438 0.831689 3.53438C0.644189 5.14687 0.906689 6.60938 1.65669 7.58438C2.55669 8.78438 4.09419 9.27188 6.23169 9.12188C6.38169 9.08438 6.53169 9.19688 6.60669 9.34688C6.68169 9.49688 6.60669 9.64688 6.49419 9.75938C5.78169 10.3594 4.80669 10.7344 3.60669 10.9594C3.53169 10.9594 3.45669 10.9594 3.38169 10.9219L1.95669 10.2094C1.84419 10.1344 1.69419 10.1344 1.58169 10.1719C1.46919 10.2094 1.35669 10.3219 1.28169 10.4344C1.16919 10.6594 1.28169 10.9594 1.50669 11.1094L2.70669 11.7469C2.81919 11.8219 2.89419 11.9719 2.89419 12.1219C2.89419 12.2719 2.78169 12.4219 2.63169 12.4594L1.35669 12.8344C1.20669 12.8719 1.13169 12.9469 1.05669 13.0594C0.981689 13.1719 0.981689 13.3219 1.01919 13.4344C1.09419 13.6969 1.35669 13.8469 1.61919 13.7719L2.74419 13.4344L2.85669 13.4344C2.96919 13.4344 3.08169 13.5094 3.15669 13.5844C3.23169 13.6969 3.26919 13.8469 3.19419 13.9969L2.66919 15.0094C2.51919 15.2344 2.63169 15.5719 2.85669 15.6844C3.26919 15.7969 3.45669 15.5719 3.53169 15.4594L4.54419 13.5094C4.65669 13.3219 4.84419 13.2469 5.03169 13.3219C5.21919 13.3969 5.93169 13.6594 6.79419 13.6594C8.14419 13.6594 9.26919 13.0594 10.1317 11.8969C10.1692 11.7844 11.6692 9.87187 10.6942 7.39687Z" fill="rgb(79,78,78)" fill-rule="evenodd" transform="matrix(0.80655,0.591166,-0.591166,0.80655,4.68689,0)" />
	</g>
	<path id="" d="M12.8408 6.20068L19.335 6.20068L19.335 8.09082L15.1514 8.09082L15.1514 10.2168L18.7607 10.2168L18.7607 11.9805L15.1514 11.9805L15.1514 16L12.8408 16L12.8408 6.20068Z" fill="rgb(216,62,62)" fill-rule="nonzero" />
</svg>
