<svg viewBox="0 0 32 21.8878" xmlns="http://www.w3.org/2000/svg" xmlns:xlink="http://www.w3.org/1999/xlink" width="32.000000" height="21.887833" fill="none" customFrame="#000000">
	<defs>
		<filter id="pixso_custom_mask_type_alpha">
			<feColorMatrix type="matrix" values="0 0 0 0 1 0 0 0 0 1 0 0 0 0 1 0 0 0 1 0 " />
		</filter>
		<g id="pixso_custom_effect_5">
			<effect x="0.000000" y="0.500000" visibility="visible" fill="rgb(0,0,0)" fill-opacity="0.25" effectType="dropShadow" stdDeviation="0" radius="0" />
		</g>
		<filter id="filter_5" width="16.000000" height="20.000000" x="8.000000" y="0.000000" filterUnits="userSpaceOnUse" customEffect="url(#pixso_custom_effect_5)" color-interpolation-filters="sRGB">
			<feFlood flood-opacity="0" result="BackgroundImageFix" />
			<feOffset dx="0.000000" dy="0.500000" in="SourceAlpha" />
			<feColorMatrix type="matrix" values="0 0 0 0 0 0 0 0 0 0 0 0 0 0 0 0 0 0 0.25 0 " />
			<feBlend result="effect_dropShadow_1" in2="BackgroundImageFix" mode="normal" />
			<feBlend result="shape" in="SourceGraphic" in2="effect_dropShadow_1" mode="normal" />
		</filter>
		<linearGradient id="paint_linear_5" x1="16" x2="16" y1="0" y2="20" gradientUnits="userSpaceOnUse">
			<stop stop-color="rgb(231,249,255)" offset="0" stop-opacity="1" />
			<stop stop-color="rgb(149,228,255)" offset="1" stop-opacity="1" />
		</linearGradient>
	</defs>
	<mask id="mask_10" width="32.000000" height="16.000000" x="0.000000" y="3.000000" maskUnits="userSpaceOnUse">
		<g filter="url(#pixso_custom_mask_type_alpha)">
			<rect id="矩形 27" width="32.000000" height="16.000000" x="0.000000" y="3.000000" rx="8.000000" fill="rgb(8,8,8)" />
		</g>
	</mask>
	<rect id="SS-Silver" width="32.000000" height="21.887833" x="0.000000" y="0.000000" fill="rgb(255,255,255)" fill-opacity="0" />
	<rect id="矩形 28" width="32.000000" height="16.000000" x="0.000000" y="3.000000" rx="8.000000" fill="rgb(215,51,169)" />
	<g id="蒙版" mask="url(#mask_10)">
		<path id="" d="M4.20557 2.80811L4.20557 3.82178L5.25 3.82178L5.25 6.6123L4.65527 6.6123L4.65527 6.31201L3.21533 6.31201L3.21533 6.6123L2.63965 6.6123L2.63965 3.82178L3.63574 3.82178L3.63574 2.80811L2.44189 2.80811L2.44189 2.2207L3.63574 2.2207L3.63574 1.19385L4.20557 1.21729L4.20557 2.2207L5.59131 2.2207L5.59131 2.80811L4.20557 2.80811ZM0.540527 1.79443L2.26172 1.79443L2.26172 6.07178L0.540527 6.07178L0.540527 1.79443ZM1.08545 5.44775L1.71533 5.44775L1.71533 2.39355L1.08545 2.39355L1.08545 5.44775ZM4.65527 4.40332L3.21533 4.40332L3.21533 5.74219L4.65527 5.74219L4.65527 4.40332ZM10.1096 2.80811L10.1096 3.82178L11.154 3.82178L11.154 6.6123L10.5593 6.6123L10.5593 6.31201L9.11933 6.31201L9.11933 6.6123L8.54365 6.6123L8.54365 3.82178L9.53974 3.82178L9.53974 2.80811L8.34589 2.80811L8.34589 2.2207L9.53974 2.2207L9.53974 1.19385L10.1096 1.21729L10.1096 2.2207L11.4953 2.2207L11.4953 2.80811L10.1096 2.80811ZM6.44453 1.79443L8.16572 1.79443L8.16572 6.07178L6.44453 6.07178L6.44453 1.79443ZM6.98945 5.44775L7.61933 5.44775L7.61933 2.39355L6.98945 2.39355L6.98945 5.44775ZM10.5593 4.40332L9.11933 4.40332L9.11933 5.74219L10.5593 5.74219L10.5593 4.40332ZM16.0136 2.80811L16.0136 3.82178L17.058 3.82178L17.058 6.6123L16.4633 6.6123L16.4633 6.31201L15.0233 6.31201L15.0233 6.6123L14.4476 6.6123L14.4476 3.82178L15.4437 3.82178L15.4437 2.80811L14.2499 2.80811L14.2499 2.2207L15.4437 2.2207L15.4437 1.19385L16.0136 1.21729L16.0136 2.2207L17.3993 2.2207L17.3993 2.80811L16.0136 2.80811ZM12.3485 1.79443L14.0697 1.79443L14.0697 6.07178L12.3485 6.07178L12.3485 1.79443ZM12.8934 5.44775L13.5233 5.44775L13.5233 2.39355L12.8934 2.39355L12.8934 5.44775ZM16.4633 4.40332L15.0233 4.40332L15.0233 5.74219L16.4633 5.74219L16.4633 4.40332ZM21.9176 2.80811L21.9176 3.82178L22.962 3.82178L22.962 6.6123L22.3673 6.6123L22.3673 6.31201L20.9273 6.31201L20.9273 6.6123L20.3517 6.6123L20.3517 3.82178L21.3477 3.82178L21.3477 2.80811L20.1539 2.80811L20.1539 2.2207L21.3477 2.2207L21.3477 1.19385L21.9176 1.21729L21.9176 2.2207L23.3033 2.2207L23.3033 2.80811L21.9176 2.80811ZM18.2525 1.79443L19.9737 1.79443L19.9737 6.07178L18.2525 6.07178L18.2525 1.79443ZM18.7975 5.44775L19.4273 5.44775L19.4273 2.39355L18.7975 2.39355L18.7975 5.44775ZM22.3673 4.40332L20.9273 4.40332L20.9273 5.74219L22.3673 5.74219L22.3673 4.40332ZM27.8216 2.80811L27.8216 3.82178L28.866 3.82178L28.866 6.6123L28.2713 6.6123L28.2713 6.31201L26.8313 6.31201L26.8313 6.6123L26.2556 6.6123L26.2556 3.82178L27.2517 3.82178L27.2517 2.80811L26.0579 2.80811L26.0579 2.2207L27.2517 2.2207L27.2517 1.19385L27.8216 1.21729L27.8216 2.2207L29.2073 2.2207L29.2073 2.80811L27.8216 2.80811ZM24.1565 1.79443L25.8777 1.79443L25.8777 6.07178L24.1565 6.07178L24.1565 1.79443ZM24.7015 5.44775L25.3313 5.44775L25.3313 2.39355L24.7015 2.39355L24.7015 5.44775ZM28.2713 4.40332L26.8313 4.40332L26.8313 5.74219L28.2713 5.74219L28.2713 4.40332ZM33.7256 2.80811L33.7256 3.82178L34.77 3.82178L34.77 6.6123L34.1753 6.6123L34.1753 6.31201L32.7353 6.31201L32.7353 6.6123L32.1596 6.6123L32.1596 3.82178L33.1557 3.82178L33.1557 2.80811L31.9619 2.80811L31.9619 2.2207L33.1557 2.2207L33.1557 1.19385L33.7256 1.21729L33.7256 2.2207L35.1113 2.2207L35.1113 2.80811L33.7256 2.80811ZM30.0605 1.79443L31.7817 1.79443L31.7817 6.07178L30.0605 6.07178L30.0605 1.79443ZM30.6054 5.44775L31.2353 5.44775L31.2353 2.39355L30.6054 2.39355L30.6054 5.44775ZM34.1753 4.40332L32.7353 4.40332L32.7353 5.74219L34.1753 5.74219L34.1753 4.40332ZM39.6296 2.80811L39.6296 3.82178L40.674 3.82178L40.674 6.6123L40.0793 6.6123L40.0793 6.31201L38.6393 6.31201L38.6393 6.6123L38.0636 6.6123L38.0636 3.82178L39.0597 3.82178L39.0597 2.80811L37.8659 2.80811L37.8659 2.2207L39.0597 2.2207L39.0597 1.19385L39.6296 1.21729L39.6296 2.2207L41.0153 2.2207L41.0153 2.80811L39.6296 2.80811ZM35.9645 1.79443L37.6857 1.79443L37.6857 6.07178L35.9645 6.07178L35.9645 1.79443ZM36.5094 5.44775L37.1393 5.44775L37.1393 2.39355L36.5094 2.39355L36.5094 5.44775ZM40.0793 4.40332L38.6393 4.40332L38.6393 5.74219L40.0793 5.74219L40.0793 4.40332ZM45.5336 2.80811L45.5336 3.82178L46.578 3.82178L46.578 6.6123L45.9833 6.6123L45.9833 6.31201L44.5433 6.31201L44.5433 6.6123L43.9676 6.6123L43.9676 3.82178L44.9637 3.82178L44.9637 2.80811L43.7699 2.80811L43.7699 2.2207L44.9637 2.2207L44.9637 1.19385L45.5336 1.21729L45.5336 2.2207L46.9193 2.2207L46.9193 2.80811L45.5336 2.80811ZM41.8685 1.79443L43.5897 1.79443L43.5897 6.07178L41.8685 6.07178L41.8685 1.79443ZM42.4134 5.44775L43.0433 5.44775L43.0433 2.39355L42.4134 2.39355L42.4134 5.44775ZM45.9833 4.40332L44.5433 4.40332L44.5433 5.74219L45.9833 5.74219L45.9833 4.40332ZM51.4376 2.80811L51.4376 3.82178L52.482 3.82178L52.482 6.6123L51.8873 6.6123L51.8873 6.31201L50.4473 6.31201L50.4473 6.6123L49.8716 6.6123L49.8716 3.82178L50.8677 3.82178L50.8677 2.80811L49.6739 2.80811L49.6739 2.2207L50.8677 2.2207L50.8677 1.19385L51.4376 1.21729L51.4376 2.2207L52.8233 2.2207L52.8233 2.80811L51.4376 2.80811ZM47.7725 1.79443L49.4937 1.79443L49.4937 6.07178L47.7725 6.07178L47.7725 1.79443ZM48.3174 5.44775L48.9473 5.44775L48.9473 2.39355L48.3174 2.39355L48.3174 5.44775ZM51.8873 4.40332L50.4473 4.40332L50.4473 5.74219L51.8873 5.74219L51.8873 4.40332ZM57.3416 2.80811L57.3416 3.82178L58.386 3.82178L58.386 6.6123L57.7913 6.6123L57.7913 6.31201L56.3513 6.31201L56.3513 6.6123L55.7756 6.6123L55.7756 3.82178L56.7717 3.82178L56.7717 2.80811L55.5779 2.80811L55.5779 2.2207L56.7717 2.2207L56.7717 1.19385L57.3416 1.21729L57.3416 2.2207L58.7273 2.2207L58.7273 2.80811L57.3416 2.80811ZM53.6765 1.79443L55.3977 1.79443L55.3977 6.07178L53.6765 6.07178L53.6765 1.79443ZM54.2214 5.44775L54.8513 5.44775L54.8513 2.39355L54.2214 2.39355L54.2214 5.44775ZM57.7913 4.40332L56.3513 4.40332L56.3513 5.74219L57.7913 5.74219L57.7913 4.40332ZM63.2456 2.80811L63.2456 3.82178L64.29 3.82178L64.29 6.6123L63.6953 6.6123L63.6953 6.31201L62.2553 6.31201L62.2553 6.6123L61.6796 6.6123L61.6796 3.82178L62.6757 3.82178L62.6757 2.80811L61.4819 2.80811L61.4819 2.2207L62.6757 2.2207L62.6757 1.19385L63.2456 1.21729L63.2456 2.2207L64.6313 2.2207L64.6313 2.80811L63.2456 2.80811ZM59.5805 1.79443L61.3017 1.79443L61.3017 6.07178L59.5805 6.07178L59.5805 1.79443ZM60.1254 5.44775L60.7553 5.44775L60.7553 2.39355L60.1254 2.39355L60.1254 5.44775ZM63.6953 4.40332L62.2553 4.40332L62.2553 5.74219L63.6953 5.74219L63.6953 4.40332ZM69.1496 2.80811L69.1496 3.82178L70.194 3.82178L70.194 6.6123L69.5993 6.6123L69.5993 6.31201L68.1593 6.31201L68.1593 6.6123L67.5836 6.6123L67.5836 3.82178L68.5797 3.82178L68.5797 2.80811L67.3859 2.80811L67.3859 2.2207L68.5797 2.2207L68.5797 1.19385L69.1496 1.21729L69.1496 2.2207L70.5353 2.2207L70.5353 2.80811L69.1496 2.80811ZM65.4845 1.79443L67.2057 1.79443L67.2057 6.07178L65.4845 6.07178L65.4845 1.79443ZM66.0294 5.44775L66.6593 5.44775L66.6593 2.39355L66.0294 2.39355L66.0294 5.44775ZM69.5993 4.40332L68.1593 4.40332L68.1593 5.74219L69.5993 5.74219L69.5993 4.40332Z" opacity="0" fill="rgb(79,78,78)" fill-rule="nonzero" transform="matrix(0.926762,-0.375648,0.375648,0.926762,-18,20.671)" />
		<path id="" d="M4.20557 2.80811L4.20557 3.82178L5.25 3.82178L5.25 6.6123L4.65527 6.6123L4.65527 6.31201L3.21533 6.31201L3.21533 6.6123L2.63965 6.6123L2.63965 3.82178L3.63574 3.82178L3.63574 2.80811L2.44189 2.80811L2.44189 2.2207L3.63574 2.2207L3.63574 1.19385L4.20557 1.21729L4.20557 2.2207L5.59131 2.2207L5.59131 2.80811L4.20557 2.80811ZM0.540527 1.79443L2.26172 1.79443L2.26172 6.07178L0.540527 6.07178L0.540527 1.79443ZM1.08545 5.44775L1.71533 5.44775L1.71533 2.39355L1.08545 2.39355L1.08545 5.44775ZM4.65527 4.40332L3.21533 4.40332L3.21533 5.74219L4.65527 5.74219L4.65527 4.40332ZM10.1096 2.80811L10.1096 3.82178L11.154 3.82178L11.154 6.6123L10.5593 6.6123L10.5593 6.31201L9.11933 6.31201L9.11933 6.6123L8.54365 6.6123L8.54365 3.82178L9.53974 3.82178L9.53974 2.80811L8.34589 2.80811L8.34589 2.2207L9.53974 2.2207L9.53974 1.19385L10.1096 1.21729L10.1096 2.2207L11.4953 2.2207L11.4953 2.80811L10.1096 2.80811ZM6.44453 1.79443L8.16572 1.79443L8.16572 6.07178L6.44453 6.07178L6.44453 1.79443ZM6.98945 5.44775L7.61933 5.44775L7.61933 2.39355L6.98945 2.39355L6.98945 5.44775ZM10.5593 4.40332L9.11933 4.40332L9.11933 5.74219L10.5593 5.74219L10.5593 4.40332ZM16.0136 2.80811L16.0136 3.82178L17.058 3.82178L17.058 6.6123L16.4633 6.6123L16.4633 6.31201L15.0233 6.31201L15.0233 6.6123L14.4476 6.6123L14.4476 3.82178L15.4437 3.82178L15.4437 2.80811L14.2499 2.80811L14.2499 2.2207L15.4437 2.2207L15.4437 1.19385L16.0136 1.21729L16.0136 2.2207L17.3993 2.2207L17.3993 2.80811L16.0136 2.80811ZM12.3485 1.79443L14.0697 1.79443L14.0697 6.07178L12.3485 6.07178L12.3485 1.79443ZM12.8934 5.44775L13.5233 5.44775L13.5233 2.39355L12.8934 2.39355L12.8934 5.44775ZM16.4633 4.40332L15.0233 4.40332L15.0233 5.74219L16.4633 5.74219L16.4633 4.40332ZM21.9176 2.80811L21.9176 3.82178L22.962 3.82178L22.962 6.6123L22.3673 6.6123L22.3673 6.31201L20.9273 6.31201L20.9273 6.6123L20.3517 6.6123L20.3517 3.82178L21.3477 3.82178L21.3477 2.80811L20.1539 2.80811L20.1539 2.2207L21.3477 2.2207L21.3477 1.19385L21.9176 1.21729L21.9176 2.2207L23.3033 2.2207L23.3033 2.80811L21.9176 2.80811ZM18.2525 1.79443L19.9737 1.79443L19.9737 6.07178L18.2525 6.07178L18.2525 1.79443ZM18.7975 5.44775L19.4273 5.44775L19.4273 2.39355L18.7975 2.39355L18.7975 5.44775ZM22.3673 4.40332L20.9273 4.40332L20.9273 5.74219L22.3673 5.74219L22.3673 4.40332ZM27.8216 2.80811L27.8216 3.82178L28.866 3.82178L28.866 6.6123L28.2713 6.6123L28.2713 6.31201L26.8313 6.31201L26.8313 6.6123L26.2556 6.6123L26.2556 3.82178L27.2517 3.82178L27.2517 2.80811L26.0579 2.80811L26.0579 2.2207L27.2517 2.2207L27.2517 1.19385L27.8216 1.21729L27.8216 2.2207L29.2073 2.2207L29.2073 2.80811L27.8216 2.80811ZM24.1565 1.79443L25.8777 1.79443L25.8777 6.07178L24.1565 6.07178L24.1565 1.79443ZM24.7015 5.44775L25.3313 5.44775L25.3313 2.39355L24.7015 2.39355L24.7015 5.44775ZM28.2713 4.40332L26.8313 4.40332L26.8313 5.74219L28.2713 5.74219L28.2713 4.40332ZM33.7256 2.80811L33.7256 3.82178L34.77 3.82178L34.77 6.6123L34.1753 6.6123L34.1753 6.31201L32.7353 6.31201L32.7353 6.6123L32.1596 6.6123L32.1596 3.82178L33.1557 3.82178L33.1557 2.80811L31.9619 2.80811L31.9619 2.2207L33.1557 2.2207L33.1557 1.19385L33.7256 1.21729L33.7256 2.2207L35.1113 2.2207L35.1113 2.80811L33.7256 2.80811ZM30.0605 1.79443L31.7817 1.79443L31.7817 6.07178L30.0605 6.07178L30.0605 1.79443ZM30.6054 5.44775L31.2353 5.44775L31.2353 2.39355L30.6054 2.39355L30.6054 5.44775ZM34.1753 4.40332L32.7353 4.40332L32.7353 5.74219L34.1753 5.74219L34.1753 4.40332ZM39.6296 2.80811L39.6296 3.82178L40.674 3.82178L40.674 6.6123L40.0793 6.6123L40.0793 6.31201L38.6393 6.31201L38.6393 6.6123L38.0636 6.6123L38.0636 3.82178L39.0597 3.82178L39.0597 2.80811L37.8659 2.80811L37.8659 2.2207L39.0597 2.2207L39.0597 1.19385L39.6296 1.21729L39.6296 2.2207L41.0153 2.2207L41.0153 2.80811L39.6296 2.80811ZM35.9645 1.79443L37.6857 1.79443L37.6857 6.07178L35.9645 6.07178L35.9645 1.79443ZM36.5094 5.44775L37.1393 5.44775L37.1393 2.39355L36.5094 2.39355L36.5094 5.44775ZM40.0793 4.40332L38.6393 4.40332L38.6393 5.74219L40.0793 5.74219L40.0793 4.40332ZM45.5336 2.80811L45.5336 3.82178L46.578 3.82178L46.578 6.6123L45.9833 6.6123L45.9833 6.31201L44.5433 6.31201L44.5433 6.6123L43.9676 6.6123L43.9676 3.82178L44.9637 3.82178L44.9637 2.80811L43.7699 2.80811L43.7699 2.2207L44.9637 2.2207L44.9637 1.19385L45.5336 1.21729L45.5336 2.2207L46.9193 2.2207L46.9193 2.80811L45.5336 2.80811ZM41.8685 1.79443L43.5897 1.79443L43.5897 6.07178L41.8685 6.07178L41.8685 1.79443ZM42.4134 5.44775L43.0433 5.44775L43.0433 2.39355L42.4134 2.39355L42.4134 5.44775ZM45.9833 4.40332L44.5433 4.40332L44.5433 5.74219L45.9833 5.74219L45.9833 4.40332ZM51.4376 2.80811L51.4376 3.82178L52.482 3.82178L52.482 6.6123L51.8873 6.6123L51.8873 6.31201L50.4473 6.31201L50.4473 6.6123L49.8716 6.6123L49.8716 3.82178L50.8677 3.82178L50.8677 2.80811L49.6739 2.80811L49.6739 2.2207L50.8677 2.2207L50.8677 1.19385L51.4376 1.21729L51.4376 2.2207L52.8233 2.2207L52.8233 2.80811L51.4376 2.80811ZM47.7725 1.79443L49.4937 1.79443L49.4937 6.07178L47.7725 6.07178L47.7725 1.79443ZM48.3174 5.44775L48.9473 5.44775L48.9473 2.39355L48.3174 2.39355L48.3174 5.44775ZM51.8873 4.40332L50.4473 4.40332L50.4473 5.74219L51.8873 5.74219L51.8873 4.40332ZM57.3416 2.80811L57.3416 3.82178L58.386 3.82178L58.386 6.6123L57.7913 6.6123L57.7913 6.31201L56.3513 6.31201L56.3513 6.6123L55.7756 6.6123L55.7756 3.82178L56.7717 3.82178L56.7717 2.80811L55.5779 2.80811L55.5779 2.2207L56.7717 2.2207L56.7717 1.19385L57.3416 1.21729L57.3416 2.2207L58.7273 2.2207L58.7273 2.80811L57.3416 2.80811ZM53.6765 1.79443L55.3977 1.79443L55.3977 6.07178L53.6765 6.07178L53.6765 1.79443ZM54.2214 5.44775L54.8513 5.44775L54.8513 2.39355L54.2214 2.39355L54.2214 5.44775ZM57.7913 4.40332L56.3513 4.40332L56.3513 5.74219L57.7913 5.74219L57.7913 4.40332ZM63.2456 2.80811L63.2456 3.82178L64.29 3.82178L64.29 6.6123L63.6953 6.6123L63.6953 6.31201L62.2553 6.31201L62.2553 6.6123L61.6796 6.6123L61.6796 3.82178L62.6757 3.82178L62.6757 2.80811L61.4819 2.80811L61.4819 2.2207L62.6757 2.2207L62.6757 1.19385L63.2456 1.21729L63.2456 2.2207L64.6313 2.2207L64.6313 2.80811L63.2456 2.80811ZM59.5805 1.79443L61.3017 1.79443L61.3017 6.07178L59.5805 6.07178L59.5805 1.79443ZM60.1254 5.44775L60.7553 5.44775L60.7553 2.39355L60.1254 2.39355L60.1254 5.44775ZM63.6953 4.40332L62.2553 4.40332L62.2553 5.74219L63.6953 5.74219L63.6953 4.40332ZM69.1496 2.80811L69.1496 3.82178L70.194 3.82178L70.194 6.6123L69.5993 6.6123L69.5993 6.31201L68.1593 6.31201L68.1593 6.6123L67.5836 6.6123L67.5836 3.82178L68.5797 3.82178L68.5797 2.80811L67.3859 2.80811L67.3859 2.2207L68.5797 2.2207L68.5797 1.19385L69.1496 1.21729L69.1496 2.2207L70.5353 2.2207L70.5353 2.80811L69.1496 2.80811ZM65.4845 1.79443L67.2057 1.79443L67.2057 6.07178L65.4845 6.07178L65.4845 1.79443ZM66.0294 5.44775L66.6593 5.44775L66.6593 2.39355L66.0294 2.39355L66.0294 5.44775ZM69.5993 4.40332L68.1593 4.40332L68.1593 5.74219L69.5993 5.74219L69.5993 4.40332Z" opacity="0" fill="rgb(79,78,78)" fill-rule="nonzero" transform="matrix(0.926762,-0.375648,0.375648,0.926762,-17,13.671)" />
		<path id="" d="M4.20557 2.80811L4.20557 3.82178L5.25 3.82178L5.25 6.6123L4.65527 6.6123L4.65527 6.31201L3.21533 6.31201L3.21533 6.6123L2.63965 6.6123L2.63965 3.82178L3.63574 3.82178L3.63574 2.80811L2.44189 2.80811L2.44189 2.2207L3.63574 2.2207L3.63574 1.19385L4.20557 1.21729L4.20557 2.2207L5.59131 2.2207L5.59131 2.80811L4.20557 2.80811ZM0.540527 1.79443L2.26172 1.79443L2.26172 6.07178L0.540527 6.07178L0.540527 1.79443ZM1.08545 5.44775L1.71533 5.44775L1.71533 2.39355L1.08545 2.39355L1.08545 5.44775ZM4.65527 4.40332L3.21533 4.40332L3.21533 5.74219L4.65527 5.74219L4.65527 4.40332ZM10.1096 2.80811L10.1096 3.82178L11.154 3.82178L11.154 6.6123L10.5593 6.6123L10.5593 6.31201L9.11933 6.31201L9.11933 6.6123L8.54365 6.6123L8.54365 3.82178L9.53974 3.82178L9.53974 2.80811L8.34589 2.80811L8.34589 2.2207L9.53974 2.2207L9.53974 1.19385L10.1096 1.21729L10.1096 2.2207L11.4953 2.2207L11.4953 2.80811L10.1096 2.80811ZM6.44453 1.79443L8.16572 1.79443L8.16572 6.07178L6.44453 6.07178L6.44453 1.79443ZM6.98945 5.44775L7.61933 5.44775L7.61933 2.39355L6.98945 2.39355L6.98945 5.44775ZM10.5593 4.40332L9.11933 4.40332L9.11933 5.74219L10.5593 5.74219L10.5593 4.40332ZM16.0136 2.80811L16.0136 3.82178L17.058 3.82178L17.058 6.6123L16.4633 6.6123L16.4633 6.31201L15.0233 6.31201L15.0233 6.6123L14.4476 6.6123L14.4476 3.82178L15.4437 3.82178L15.4437 2.80811L14.2499 2.80811L14.2499 2.2207L15.4437 2.2207L15.4437 1.19385L16.0136 1.21729L16.0136 2.2207L17.3993 2.2207L17.3993 2.80811L16.0136 2.80811ZM12.3485 1.79443L14.0697 1.79443L14.0697 6.07178L12.3485 6.07178L12.3485 1.79443ZM12.8934 5.44775L13.5233 5.44775L13.5233 2.39355L12.8934 2.39355L12.8934 5.44775ZM16.4633 4.40332L15.0233 4.40332L15.0233 5.74219L16.4633 5.74219L16.4633 4.40332ZM21.9176 2.80811L21.9176 3.82178L22.962 3.82178L22.962 6.6123L22.3673 6.6123L22.3673 6.31201L20.9273 6.31201L20.9273 6.6123L20.3517 6.6123L20.3517 3.82178L21.3477 3.82178L21.3477 2.80811L20.1539 2.80811L20.1539 2.2207L21.3477 2.2207L21.3477 1.19385L21.9176 1.21729L21.9176 2.2207L23.3033 2.2207L23.3033 2.80811L21.9176 2.80811ZM18.2525 1.79443L19.9737 1.79443L19.9737 6.07178L18.2525 6.07178L18.2525 1.79443ZM18.7975 5.44775L19.4273 5.44775L19.4273 2.39355L18.7975 2.39355L18.7975 5.44775ZM22.3673 4.40332L20.9273 4.40332L20.9273 5.74219L22.3673 5.74219L22.3673 4.40332ZM27.8216 2.80811L27.8216 3.82178L28.866 3.82178L28.866 6.6123L28.2713 6.6123L28.2713 6.31201L26.8313 6.31201L26.8313 6.6123L26.2556 6.6123L26.2556 3.82178L27.2517 3.82178L27.2517 2.80811L26.0579 2.80811L26.0579 2.2207L27.2517 2.2207L27.2517 1.19385L27.8216 1.21729L27.8216 2.2207L29.2073 2.2207L29.2073 2.80811L27.8216 2.80811ZM24.1565 1.79443L25.8777 1.79443L25.8777 6.07178L24.1565 6.07178L24.1565 1.79443ZM24.7015 5.44775L25.3313 5.44775L25.3313 2.39355L24.7015 2.39355L24.7015 5.44775ZM28.2713 4.40332L26.8313 4.40332L26.8313 5.74219L28.2713 5.74219L28.2713 4.40332ZM33.7256 2.80811L33.7256 3.82178L34.77 3.82178L34.77 6.6123L34.1753 6.6123L34.1753 6.31201L32.7353 6.31201L32.7353 6.6123L32.1596 6.6123L32.1596 3.82178L33.1557 3.82178L33.1557 2.80811L31.9619 2.80811L31.9619 2.2207L33.1557 2.2207L33.1557 1.19385L33.7256 1.21729L33.7256 2.2207L35.1113 2.2207L35.1113 2.80811L33.7256 2.80811ZM30.0605 1.79443L31.7817 1.79443L31.7817 6.07178L30.0605 6.07178L30.0605 1.79443ZM30.6054 5.44775L31.2353 5.44775L31.2353 2.39355L30.6054 2.39355L30.6054 5.44775ZM34.1753 4.40332L32.7353 4.40332L32.7353 5.74219L34.1753 5.74219L34.1753 4.40332ZM39.6296 2.80811L39.6296 3.82178L40.674 3.82178L40.674 6.6123L40.0793 6.6123L40.0793 6.31201L38.6393 6.31201L38.6393 6.6123L38.0636 6.6123L38.0636 3.82178L39.0597 3.82178L39.0597 2.80811L37.8659 2.80811L37.8659 2.2207L39.0597 2.2207L39.0597 1.19385L39.6296 1.21729L39.6296 2.2207L41.0153 2.2207L41.0153 2.80811L39.6296 2.80811ZM35.9645 1.79443L37.6857 1.79443L37.6857 6.07178L35.9645 6.07178L35.9645 1.79443ZM36.5094 5.44775L37.1393 5.44775L37.1393 2.39355L36.5094 2.39355L36.5094 5.44775ZM40.0793 4.40332L38.6393 4.40332L38.6393 5.74219L40.0793 5.74219L40.0793 4.40332ZM45.5336 2.80811L45.5336 3.82178L46.578 3.82178L46.578 6.6123L45.9833 6.6123L45.9833 6.31201L44.5433 6.31201L44.5433 6.6123L43.9676 6.6123L43.9676 3.82178L44.9637 3.82178L44.9637 2.80811L43.7699 2.80811L43.7699 2.2207L44.9637 2.2207L44.9637 1.19385L45.5336 1.21729L45.5336 2.2207L46.9193 2.2207L46.9193 2.80811L45.5336 2.80811ZM41.8685 1.79443L43.5897 1.79443L43.5897 6.07178L41.8685 6.07178L41.8685 1.79443ZM42.4134 5.44775L43.0433 5.44775L43.0433 2.39355L42.4134 2.39355L42.4134 5.44775ZM45.9833 4.40332L44.5433 4.40332L44.5433 5.74219L45.9833 5.74219L45.9833 4.40332ZM51.4376 2.80811L51.4376 3.82178L52.482 3.82178L52.482 6.6123L51.8873 6.6123L51.8873 6.31201L50.4473 6.31201L50.4473 6.6123L49.8716 6.6123L49.8716 3.82178L50.8677 3.82178L50.8677 2.80811L49.6739 2.80811L49.6739 2.2207L50.8677 2.2207L50.8677 1.19385L51.4376 1.21729L51.4376 2.2207L52.8233 2.2207L52.8233 2.80811L51.4376 2.80811ZM47.7725 1.79443L49.4937 1.79443L49.4937 6.07178L47.7725 6.07178L47.7725 1.79443ZM48.3174 5.44775L48.9473 5.44775L48.9473 2.39355L48.3174 2.39355L48.3174 5.44775ZM51.8873 4.40332L50.4473 4.40332L50.4473 5.74219L51.8873 5.74219L51.8873 4.40332ZM57.3416 2.80811L57.3416 3.82178L58.386 3.82178L58.386 6.6123L57.7913 6.6123L57.7913 6.31201L56.3513 6.31201L56.3513 6.6123L55.7756 6.6123L55.7756 3.82178L56.7717 3.82178L56.7717 2.80811L55.5779 2.80811L55.5779 2.2207L56.7717 2.2207L56.7717 1.19385L57.3416 1.21729L57.3416 2.2207L58.7273 2.2207L58.7273 2.80811L57.3416 2.80811ZM53.6765 1.79443L55.3977 1.79443L55.3977 6.07178L53.6765 6.07178L53.6765 1.79443ZM54.2214 5.44775L54.8513 5.44775L54.8513 2.39355L54.2214 2.39355L54.2214 5.44775ZM57.7913 4.40332L56.3513 4.40332L56.3513 5.74219L57.7913 5.74219L57.7913 4.40332ZM63.2456 2.80811L63.2456 3.82178L64.29 3.82178L64.29 6.6123L63.6953 6.6123L63.6953 6.31201L62.2553 6.31201L62.2553 6.6123L61.6796 6.6123L61.6796 3.82178L62.6757 3.82178L62.6757 2.80811L61.4819 2.80811L61.4819 2.2207L62.6757 2.2207L62.6757 1.19385L63.2456 1.21729L63.2456 2.2207L64.6313 2.2207L64.6313 2.80811L63.2456 2.80811ZM59.5805 1.79443L61.3017 1.79443L61.3017 6.07178L59.5805 6.07178L59.5805 1.79443ZM60.1254 5.44775L60.7553 5.44775L60.7553 2.39355L60.1254 2.39355L60.1254 5.44775ZM63.6953 4.40332L62.2553 4.40332L62.2553 5.74219L63.6953 5.74219L63.6953 4.40332ZM69.1496 2.80811L69.1496 3.82178L70.194 3.82178L70.194 6.6123L69.5993 6.6123L69.5993 6.31201L68.1593 6.31201L68.1593 6.6123L67.5836 6.6123L67.5836 3.82178L68.5797 3.82178L68.5797 2.80811L67.3859 2.80811L67.3859 2.2207L68.5797 2.2207L68.5797 1.19385L69.1496 1.21729L69.1496 2.2207L70.5353 2.2207L70.5353 2.80811L69.1496 2.80811ZM65.4845 1.79443L67.2057 1.79443L67.2057 6.07178L65.4845 6.07178L65.4845 1.79443ZM66.0294 5.44775L66.6593 5.44775L66.6593 2.39355L66.0294 2.39355L66.0294 5.44775ZM69.5993 4.40332L68.1593 4.40332L68.1593 5.74219L69.5993 5.74219L69.5993 4.40332Z" opacity="0" fill="rgb(79,78,78)" fill-rule="nonzero" transform="matrix(0.917504,-0.397727,0.397727,0.917504,-14,26.2386)" />
		<path id="矢量 61" d="M12.8182 18C12.8182 18.1042 12.8233 18.2082 12.8335 18.3119C12.8437 18.4156 12.859 18.5185 12.8793 18.6207C12.8996 18.7229 12.9249 18.8239 12.9552 18.9236C12.9854 19.0233 13.0205 19.1213 13.0604 19.2176C13.1003 19.3139 13.1448 19.4079 13.1939 19.4998C13.243 19.5917 13.2965 19.681 13.3544 19.7677C13.4123 19.8543 13.4743 19.9379 13.5404 20.0184C13.6065 20.099 13.6764 20.1761 13.7501 20.2498C13.8238 20.3235 13.9009 20.3934 13.9814 20.4595C14.062 20.5256 14.1456 20.5876 14.2322 20.6455C14.3189 20.7034 14.4081 20.7569 14.5 20.806C14.5919 20.8551 14.686 20.8996 14.7823 20.9395C14.8786 20.9794 14.9766 21.0144 15.0763 21.0447C15.176 21.0749 15.277 21.1002 15.3792 21.1206C15.4814 21.1409 15.5843 21.1562 15.688 21.1664C15.7917 21.1766 15.8957 21.1817 15.9999 21.1817C16.1041 21.1817 16.2081 21.1766 16.3118 21.1664C16.4155 21.1562 16.5184 21.1409 16.6206 21.1206C16.7228 21.1002 16.8238 21.0749 16.9235 21.0447C17.0232 21.0144 17.1212 20.9794 17.2175 20.9395C17.3138 20.8996 17.4078 20.8551 17.4997 20.806C17.5917 20.7569 17.6809 20.7034 17.7676 20.6455C17.8542 20.5876 17.9378 20.5256 18.0184 20.4595C18.0989 20.3934 18.176 20.3235 18.2497 20.2498C18.3234 20.1761 18.3933 20.099 18.4594 20.0184C18.5255 19.9379 18.5875 19.8543 18.6454 19.7677C18.7033 19.681 18.7568 19.5917 18.8059 19.4998C18.855 19.4079 18.8995 19.3139 18.9394 19.2176C18.9793 19.1213 19.0144 19.0233 19.0446 18.9236C19.0749 18.8239 19.1001 18.7229 19.1205 18.6207C19.1408 18.5185 19.1561 18.4156 19.1663 18.3119C19.1765 18.2082 19.1816 18.1042 19.1816 18C19.1816 17.8958 19.1765 17.7918 19.1663 17.6881C19.1561 17.5844 19.1408 17.4815 19.1205 17.3793C19.1002 17.2771 19.0749 17.1761 19.0446 17.0764C19.0144 16.9767 18.9793 16.8787 18.9394 16.7824C18.8995 16.6861 18.855 16.5921 18.8059 16.5002C18.7568 16.4083 18.7033 16.319 18.6454 16.2323C18.5875 16.1457 18.5255 16.0621 18.4594 15.9816C18.3933 15.901 18.3234 15.8239 18.2497 15.7502C18.176 15.6765 18.0989 15.6066 18.0184 15.5405C17.9378 15.4744 17.8542 15.4124 17.7676 15.3545C17.6809 15.2966 17.5917 15.2431 17.4997 15.194C17.4078 15.1449 17.3138 15.1004 17.2175 15.0605C17.1212 15.0206 17.0232 14.9856 16.9235 14.9553C16.8238 14.9251 16.7228 14.8998 16.6206 14.8794C16.5184 14.8591 16.4155 14.8438 16.3118 14.8336C16.2081 14.8234 16.1041 14.8183 15.9999 14.8183C15.8957 14.8183 15.7917 14.8234 15.688 14.8336C15.5843 14.8438 15.4814 14.8591 15.3792 14.8794C15.277 14.8998 15.176 14.9251 15.0763 14.9553C14.9766 14.9856 14.8786 15.0206 14.7823 15.0605C14.686 15.1004 14.5919 15.1449 14.5 15.194C14.4081 15.2431 14.3189 15.2966 14.2322 15.3545C14.1456 15.4124 14.062 15.4744 13.9814 15.5405C13.9009 15.6066 13.8238 15.6765 13.7501 15.7502C13.6764 15.8239 13.6065 15.901 13.5404 15.9816C13.4743 16.0621 13.4123 16.1457 13.3544 16.2323C13.2965 16.319 13.243 16.4083 13.1939 16.5002C13.1448 16.5921 13.1003 16.6861 13.0604 16.7824C13.0205 16.8787 12.9854 16.9767 12.9552 17.0764C12.9249 17.1761 12.8996 17.2771 12.8793 17.3793C12.859 17.4815 12.8437 17.5844 12.8335 17.6881C12.8233 17.7918 12.8182 17.8958 12.8182 18ZM15.9618 14.3252L16.038 14.3252C16.0637 14.3252 16.089 14.3227 16.1142 14.3177C16.1393 14.3127 16.1637 14.3053 16.1874 14.2954C16.211 14.2856 16.2335 14.2736 16.2548 14.2594C16.2761 14.2451 16.2959 14.229 16.314 14.2108C16.3321 14.1927 16.3483 14.173 16.3625 14.1517C16.3767 14.1304 16.3888 14.1079 16.3986 14.0842C16.4084 14.0606 16.4158 14.0362 16.4208 14.011C16.4258 13.9859 16.4283 13.9605 16.4283 13.9349L16.4283 12.3903C16.4283 12.3646 16.4258 12.3393 16.4208 12.3141C16.4158 12.289 16.4084 12.2646 16.3986 12.2409C16.3888 12.2173 16.3767 12.1948 16.3625 12.1735C16.3483 12.1522 16.3321 12.1324 16.314 12.1143C16.2959 12.0962 16.2761 12.08 16.2548 12.0658C16.2335 12.0516 16.211 12.0395 16.1874 12.0297C16.1637 12.0199 16.1393 12.0125 16.1142 12.0075C16.089 12.0025 16.0637 12 16.038 12L15.9618 12C15.9362 12 15.9108 12.0025 15.8857 12.0075C15.8606 12.0125 15.8362 12.0199 15.8125 12.0297C15.7888 12.0395 15.7663 12.0516 15.745 12.0658C15.7237 12.08 15.704 12.0962 15.6859 12.1143C15.6678 12.1324 15.6516 12.1522 15.6374 12.1735C15.6231 12.1948 15.6111 12.2173 15.6013 12.2409C15.5915 12.2646 15.5841 12.289 15.5791 12.3141C15.5741 12.3393 15.5716 12.3646 15.5716 12.3903L15.5716 13.9349C15.5716 13.9605 15.5741 13.9859 15.5791 14.011C15.5841 14.0362 15.5915 14.0606 15.6013 14.0842C15.6111 14.1079 15.6231 14.1304 15.6374 14.1517C15.6516 14.173 15.6678 14.1927 15.6859 14.2108C15.704 14.2289 15.7237 14.2451 15.745 14.2594C15.7663 14.2736 15.7888 14.2856 15.8125 14.2954C15.8362 14.3052 15.8606 14.3126 15.8857 14.3177C15.9108 14.3227 15.9362 14.3252 15.9618 14.3252L15.9618 14.3252ZM12.8227 15.4284C12.8408 15.4465 12.8605 15.4627 12.8818 15.477C12.9032 15.4912 12.9256 15.5032 12.9493 15.513C12.973 15.5228 12.9974 15.5302 13.0225 15.5352C13.0476 15.5402 13.073 15.5427 13.0986 15.5427C13.1243 15.5427 13.1496 15.5402 13.1748 15.5352C13.1999 15.5302 13.2243 15.5228 13.248 15.513C13.2717 15.5032 13.2941 15.4912 13.3154 15.477C13.3368 15.4627 13.3565 15.4465 13.3746 15.4284L13.4284 15.3746C13.4466 15.3565 13.4627 15.3368 13.477 15.3155C13.4912 15.2942 13.5032 15.2717 13.513 15.248C13.5229 15.2244 13.5303 15.2 13.5353 15.1748C13.5403 15.1497 13.5428 15.1243 13.5428 15.0987C13.5428 15.0731 13.5403 15.0477 13.5353 15.0226C13.5303 14.9974 13.5229 14.973 13.513 14.9494C13.5032 14.9257 13.4912 14.9032 13.477 14.8819C13.4627 14.8606 13.4466 14.8409 13.4284 14.8228L12.3363 13.7306C12.3182 13.7125 12.2985 13.6964 12.2772 13.6821C12.2559 13.6679 12.2334 13.6559 12.2097 13.6461C12.186 13.6363 12.1616 13.6289 12.1365 13.6239C12.1113 13.6189 12.0859 13.6164 12.0603 13.6164C12.0347 13.6164 12.0093 13.6189 11.9842 13.6239C11.959 13.6289 11.9346 13.6363 11.911 13.6461C11.8873 13.6559 11.8648 13.6679 11.8435 13.6821C11.8222 13.6964 11.8024 13.7125 11.7843 13.7306L11.7305 13.7844C11.7124 13.8026 11.6962 13.8223 11.682 13.8436C11.6677 13.8649 11.6557 13.8874 11.6459 13.911C11.6361 13.9347 11.6287 13.9591 11.6237 13.9842C11.6187 14.0094 11.6162 14.0348 11.6162 14.0604C11.6162 14.086 11.6187 14.1114 11.6237 14.1365C11.6287 14.1616 11.6361 14.186 11.6459 14.2097C11.6557 14.2334 11.6677 14.2559 11.682 14.2772C11.6962 14.2985 11.7124 14.3182 11.7305 14.3363L12.8227 15.4284ZM12.3251 18.0381L12.3251 17.962C12.3251 17.9364 12.3226 17.911 12.3176 17.8859C12.3126 17.8607 12.3052 17.8363 12.2954 17.8126C12.2856 17.789 12.2736 17.7665 12.2594 17.7452C12.2451 17.7239 12.229 17.7041 12.2108 17.686C12.1927 17.6679 12.173 17.6517 12.1517 17.6375C12.1304 17.6233 12.1079 17.6112 12.0842 17.6014C12.0605 17.5916 12.0361 17.5842 12.011 17.5792C11.9859 17.5742 11.9605 17.5717 11.9349 17.5717L10.3903 17.5717C10.3646 17.5717 10.3393 17.5742 10.3141 17.5792C10.289 17.5842 10.2646 17.5916 10.2409 17.6014C10.2172 17.6113 10.1948 17.6233 10.1734 17.6375C10.1521 17.6517 10.1324 17.6679 10.1143 17.686C10.0962 17.7042 10.08 17.7239 10.0658 17.7452C10.0515 17.7665 10.0395 17.789 10.0297 17.8127C10.0199 17.8363 10.0125 17.8607 10.0075 17.8859C10.0025 17.911 10 17.9364 10 17.962L10 18.0381C10 18.0637 10.0025 18.0891 10.0075 18.1142C10.0125 18.1393 10.0199 18.1637 10.0297 18.1874C10.0395 18.2111 10.0515 18.2336 10.0658 18.2549C10.08 18.2762 10.0962 18.2959 10.1143 18.314C10.1324 18.3322 10.1521 18.3483 10.1734 18.3626C10.1947 18.3768 10.2172 18.3888 10.2409 18.3986C10.2646 18.4084 10.289 18.4158 10.3141 18.4208C10.3393 18.4258 10.3646 18.4283 10.3903 18.4283L11.9348 18.4283C11.9604 18.4283 11.9858 18.4258 12.0109 18.4209C12.0361 18.4159 12.0605 18.4085 12.0842 18.3987C12.1078 18.3889 12.1303 18.3768 12.1517 18.3626C12.173 18.3484 12.1927 18.3322 12.2108 18.3141C12.2289 18.2959 12.2451 18.2762 12.2594 18.2549C12.2736 18.2336 12.2856 18.2111 12.2954 18.1874C12.3052 18.1638 12.3126 18.1394 12.3176 18.1142C12.3226 18.0891 12.3251 18.0637 12.3251 18.0381ZM13.3747 20.5716C13.3566 20.5534 13.3369 20.5372 13.3156 20.523C13.2943 20.5088 13.2718 20.4967 13.2481 20.4869C13.2244 20.4771 13.2 20.4697 13.1749 20.4647C13.1497 20.4597 13.1243 20.4572 13.0987 20.4572C13.0731 20.4572 13.0477 20.4597 13.0226 20.4647C12.9974 20.4697 12.973 20.4771 12.9493 20.4869C12.9257 20.4967 12.9032 20.5088 12.8819 20.523C12.8605 20.5372 12.8408 20.5534 12.8227 20.5716L11.7306 21.6637C11.7125 21.6818 11.6963 21.7015 11.6821 21.7229C11.6678 21.7442 11.6558 21.7667 11.646 21.7903C11.6362 21.814 11.6288 21.8384 11.6238 21.8635C11.6188 21.8887 11.6163 21.9141 11.6163 21.9397C11.6163 21.9653 11.6188 21.9907 11.6238 22.0158C11.6288 22.041 11.6362 22.0654 11.646 22.089C11.6558 22.1127 11.6678 22.1352 11.6821 22.1565C11.6963 22.1778 11.7125 22.1976 11.7306 22.2157L11.7844 22.2695C11.8025 22.2876 11.8222 22.3038 11.8435 22.318C11.8649 22.3322 11.8873 22.3443 11.911 22.3541C11.9347 22.3639 11.9591 22.3713 11.9842 22.3763C12.0094 22.3813 12.0348 22.3838 12.0604 22.3838C12.086 22.3838 12.1114 22.3813 12.1365 22.3763C12.1617 22.3713 12.1861 22.3639 12.2098 22.3541C12.2334 22.3443 12.2559 22.3323 12.2772 22.318C12.2985 22.3038 12.3183 22.2876 12.3364 22.2695L13.4285 21.1773C13.4466 21.1592 13.4628 21.1395 13.4771 21.1182C13.4913 21.0969 13.5033 21.0744 13.5131 21.0507C13.5229 21.027 13.5303 21.0026 13.5353 20.9775C13.5403 20.9523 13.5428 20.927 13.5428 20.9013C13.5428 20.8757 13.5403 20.8503 13.5353 20.8252C13.5303 20.8001 13.5229 20.7757 13.5131 20.752C13.5033 20.7283 13.4913 20.7058 13.4771 20.6845C13.4628 20.6632 13.4466 20.6435 13.4285 20.6254L13.3747 20.5716ZM16.0381 21.6748L15.9619 21.6748C15.9363 21.6748 15.9109 21.6773 15.8858 21.6823C15.8606 21.6873 15.8362 21.6947 15.8125 21.7045C15.7889 21.7143 15.7664 21.7263 15.7451 21.7406C15.7238 21.7548 15.704 21.771 15.6859 21.7891C15.6678 21.8072 15.6516 21.8269 15.6374 21.8483C15.6231 21.8696 15.6111 21.8921 15.6013 21.9157C15.5915 21.9394 15.5841 21.9638 15.5791 21.9889C15.5741 22.0141 15.5716 22.0395 15.5716 22.0651L15.5716 23.6097C15.5716 23.6354 15.5741 23.6607 15.5791 23.6859C15.5841 23.711 15.5915 23.7354 15.6013 23.7591C15.6112 23.7828 15.6232 23.8053 15.6374 23.8266C15.6517 23.8479 15.6678 23.8676 15.686 23.8857C15.7041 23.9038 15.7238 23.92 15.7451 23.9342C15.7664 23.9485 15.7889 23.9605 15.8126 23.9703C15.8363 23.9801 15.8607 23.9875 15.8858 23.9925C15.911 23.9975 15.9363 24 15.962 24L16.038 24C16.0636 24 16.089 23.9975 16.1141 23.9925C16.1392 23.9875 16.1636 23.9801 16.1873 23.9703C16.211 23.9605 16.2335 23.9485 16.2548 23.9342C16.2761 23.92 16.2958 23.9038 16.3139 23.8857C16.3321 23.8676 16.3482 23.8479 16.3625 23.8266C16.3767 23.8053 16.3887 23.7828 16.3985 23.7591C16.4083 23.7354 16.4157 23.711 16.4207 23.6859C16.4257 23.6607 16.4282 23.6354 16.4282 23.6097L16.4282 22.0651C16.4282 22.0395 16.4258 22.0141 16.4208 21.9889C16.4158 21.9638 16.4084 21.9394 16.3986 21.9157C16.3888 21.8921 16.3768 21.8696 16.3626 21.8482C16.3483 21.8269 16.3322 21.8072 16.314 21.7891C16.2959 21.771 16.2762 21.7548 16.2549 21.7406C16.2336 21.7263 16.2111 21.7143 16.1874 21.7045C16.1638 21.6947 16.1394 21.6873 16.1142 21.6823C16.0891 21.6773 16.0637 21.6748 16.0381 21.6748L16.0381 21.6748ZM19.1774 20.5716C19.1593 20.5534 19.1396 20.5373 19.1183 20.523C19.097 20.5088 19.0745 20.4967 19.0508 20.4869C19.0271 20.4771 19.0027 20.4697 18.9776 20.4647C18.9525 20.4597 18.9271 20.4572 18.9015 20.4572C18.8758 20.4571 18.8504 20.4596 18.8253 20.4646C18.8002 20.4696 18.7758 20.477 18.7521 20.4868C18.7284 20.4966 18.7059 20.5086 18.6846 20.5229C18.6633 20.5371 18.6435 20.5533 18.6254 20.5714L18.5716 20.6254C18.5535 20.6435 18.5373 20.6632 18.523 20.6845C18.5088 20.7058 18.4968 20.7283 18.4869 20.752C18.4771 20.7756 18.4697 20.8 18.4647 20.8252C18.4597 20.8503 18.4572 20.8757 18.4572 20.9013C18.4572 20.927 18.4597 20.9523 18.4647 20.9775C18.4697 21.0026 18.4771 21.027 18.4869 21.0507C18.4968 21.0744 18.5088 21.0969 18.523 21.1182C18.5373 21.1395 18.5535 21.1592 18.5716 21.1773L19.6638 22.2695C19.6819 22.2876 19.7016 22.3038 19.723 22.318C19.7443 22.3323 19.7668 22.3443 19.7904 22.3541C19.8141 22.3639 19.8385 22.3713 19.8636 22.3763C19.8888 22.3813 19.9142 22.3838 19.9398 22.3838C19.9654 22.3838 19.9908 22.3813 20.0159 22.3763C20.041 22.3713 20.0655 22.3639 20.0891 22.3541C20.1128 22.3443 20.1353 22.3323 20.1566 22.318C20.1779 22.3038 20.1976 22.2876 20.2157 22.2695L20.2695 22.2155C20.2877 22.1974 20.3038 22.1777 20.3181 22.1564C20.3323 22.1351 20.3443 22.1126 20.3541 22.0889C20.3639 22.0652 20.3713 22.0408 20.3763 22.0157C20.3813 21.9906 20.3838 21.9652 20.3838 21.9396C20.3838 21.914 20.3813 21.8886 20.3763 21.8635C20.3713 21.8383 20.3639 21.8139 20.3541 21.7903C20.3443 21.7666 20.3323 21.7441 20.3181 21.7228C20.3038 21.7015 20.2877 21.6818 20.2695 21.6637L19.1774 20.5716ZM21.6097 17.5717L20.0651 17.5717C20.0395 17.5717 20.0141 17.5742 19.989 17.5792C19.9638 17.5841 19.9394 17.5915 19.9157 17.6013C19.8921 17.6111 19.8696 17.6232 19.8483 17.6374C19.827 17.6516 19.8073 17.6678 19.7891 17.6859C19.771 17.704 19.7548 17.7237 19.7406 17.745C19.7264 17.7663 19.7143 17.7888 19.7045 17.8125C19.6947 17.8362 19.6873 17.8605 19.6823 17.8857C19.6773 17.9108 19.6748 17.9362 19.6748 17.9618L19.6748 18.038C19.6748 18.0636 19.6773 18.089 19.6823 18.1141C19.6873 18.1393 19.6947 18.1637 19.7045 18.1873C19.7143 18.211 19.7264 18.2335 19.7406 18.2548C19.7548 18.2761 19.771 18.2958 19.7891 18.3139C19.8073 18.3321 19.827 18.3482 19.8483 18.3625C19.8696 18.3767 19.8921 18.3887 19.9157 18.3985C19.9394 18.4083 19.9638 18.4157 19.9889 18.4208C20.0141 18.4258 20.0395 18.4283 20.0651 18.4283L21.6097 18.4283C21.6354 18.4283 21.6607 18.4258 21.6859 18.4208C21.711 18.4158 21.7354 18.4084 21.7591 18.3986C21.7828 18.3888 21.8053 18.3767 21.8266 18.3625C21.8479 18.3483 21.8676 18.3321 21.8857 18.314C21.9038 18.2959 21.92 18.2761 21.9342 18.2548C21.9485 18.2335 21.9605 18.211 21.9703 18.1874C21.9801 18.1637 21.9875 18.1393 21.9925 18.1141C21.9975 18.089 22 18.0636 22 18.038L22 17.9618C22 17.9362 21.9975 17.9108 21.9925 17.8857C21.9875 17.8605 21.9801 17.8361 21.9703 17.8125C21.9605 17.7888 21.9485 17.7663 21.9342 17.745C21.92 17.7237 21.9038 17.704 21.8857 17.6859C21.8676 17.6678 21.8479 17.6516 21.8265 17.6374C21.8052 17.6231 21.7827 17.6111 21.7591 17.6013C21.7354 17.5915 21.711 17.5841 21.6859 17.5791C21.6607 17.5742 21.6354 17.5717 21.6097 17.5717L21.6097 17.5717ZM18.6254 15.4284C18.6435 15.4465 18.6632 15.4627 18.6845 15.4769C18.7058 15.4912 18.7283 15.5032 18.752 15.513C18.7757 15.5228 18.8001 15.5302 18.8252 15.5352C18.8503 15.5402 18.8757 15.5427 18.9013 15.5427C18.9269 15.5427 18.9523 15.5402 18.9774 15.5352C19.0026 15.5302 19.027 15.5228 19.0506 15.513C19.0743 15.5032 19.0968 15.4912 19.1181 15.4769C19.1394 15.4627 19.1591 15.4465 19.1772 15.4284L20.2695 14.3362C20.2877 14.3181 20.3038 14.2984 20.3181 14.2771C20.3323 14.2558 20.3443 14.2333 20.3541 14.2096C20.3639 14.186 20.3714 14.1616 20.3764 14.1364C20.3813 14.1113 20.3839 14.0859 20.3839 14.0603C20.3839 14.0347 20.3813 14.0093 20.3764 13.9842C20.3714 13.959 20.3639 13.9346 20.3541 13.911C20.3443 13.8873 20.3323 13.8648 20.3181 13.8435C20.3038 13.8222 20.2877 13.8025 20.2695 13.7844L20.2155 13.7305C20.1974 13.7124 20.1777 13.6962 20.1564 13.682C20.1351 13.6677 20.1127 13.6557 20.089 13.6459C20.0653 13.6361 20.0409 13.6287 20.0158 13.6237C19.9907 13.6187 19.9653 13.6162 19.9397 13.6162C19.9141 13.6162 19.8887 13.6187 19.8636 13.6237C19.8384 13.6287 19.814 13.6361 19.7904 13.6459C19.7667 13.6557 19.7442 13.6677 19.7229 13.682C19.7016 13.6962 19.6819 13.7124 19.6638 13.7305L18.5716 14.8227C18.5535 14.8408 18.5373 14.8605 18.5231 14.8818C18.5088 14.9031 18.4968 14.9256 18.487 14.9492C18.4771 14.9729 18.4697 14.9973 18.4647 15.0224C18.4597 15.0476 18.4572 15.0729 18.4572 15.0986C18.4572 15.1242 18.4597 15.1496 18.4647 15.1747C18.4697 15.1998 18.4771 15.2242 18.4869 15.2479C18.4967 15.2716 18.5087 15.2941 18.5229 15.3154C18.5371 15.3367 18.5533 15.3564 18.5714 15.3745L18.6254 15.4284Z" fill="rgb(187,24,142)" fill-rule="nonzero" />
		<path id="矢量 55" d="M20.1053 9.14286C20.6947 9.01429 21.1579 8.5 21.1579 7.85714C21.1579 7.12857 20.6105 6.57143 19.8947 6.57143C19.7263 6.57143 19.6 6.61429 19.4737 6.65714L19.4737 6.57143C19.4737 5.62857 18.7158 4.85714 17.7895 4.85714C16.8632 4.85714 16.1053 5.62857 16.1053 6.57143C16.1053 6.74286 16.1474 6.87143 16.1474 7.04286C16.0632 7 15.9789 7 15.8947 7C15.3053 7 14.8421 7.47143 14.8421 8.07143C14.8421 8.67143 15.3053 9.14286 15.8947 9.14286L20.1053 9.14286L20.1053 9.14286ZM20.1053 10L15.8947 10C14.8421 10 14 9.14286 14 8.07143C14 7.21429 14.5474 6.48571 15.2632 6.22857C15.4316 4.98571 16.4842 4 17.7895 4C18.8842 4 19.8526 4.72857 20.1895 5.71429C21.2 5.84286 22 6.74286 22 7.85714C22 8.97143 21.1579 9.87143 20.1053 10Z" fill="rgb(187,24,142)" fill-rule="nonzero" />
		<path id="矢量 62" d="M28.1053 6.14286C28.6947 6.01429 29.1579 5.5 29.1579 4.85714C29.1579 4.12857 28.6105 3.57143 27.8947 3.57143C27.7263 3.57143 27.6 3.61429 27.4737 3.65714L27.4737 3.57143C27.4737 2.62857 26.7158 1.85714 25.7895 1.85714C24.8632 1.85714 24.1053 2.62857 24.1053 3.57143C24.1053 3.74286 24.1474 3.87143 24.1474 4.04286C24.0632 4 23.9789 4 23.8947 4C23.3053 4 22.8421 4.47143 22.8421 5.07143C22.8421 5.67143 23.3053 6.14286 23.8947 6.14286L28.1053 6.14286L28.1053 6.14286ZM28.1053 7L23.8947 7C22.8421 7 22 6.14286 22 5.07143C22 4.21429 22.5474 3.48571 23.2632 3.22857C23.4316 1.98571 24.4842 1 25.7895 1C26.8842 1 27.8526 1.72857 28.1895 2.71429C29.2 2.84286 30 3.74286 30 4.85714C30 5.97143 29.1579 6.87143 28.1053 7Z" fill="rgb(187,24,142)" fill-rule="nonzero" />
		<path id="矢量 56" d="M10.1053 6.14286C10.6947 6.01429 11.1579 5.5 11.1579 4.85714C11.1579 4.12857 10.6105 3.57143 9.89474 3.57143C9.72632 3.57143 9.6 3.61429 9.47368 3.65714L9.47368 3.57143C9.47368 2.62857 8.71579 1.85714 7.78947 1.85714C6.86316 1.85714 6.10526 2.62857 6.10526 3.57143C6.10526 3.74286 6.14737 3.87143 6.14737 4.04286C6.06316 4 5.97895 4 5.89474 4C5.30526 4 4.8421 4.47143 4.8421 5.07143C4.8421 5.67143 5.30526 6.14286 5.89474 6.14286L10.1053 6.14286L10.1053 6.14286ZM10.1053 7L5.89474 7C4.84211 7 4 6.14286 4 5.07143C4 4.21429 4.54737 3.48571 5.26316 3.22857C5.43158 1.98571 6.48421 1 7.78947 1C8.88421 1 9.85263 1.72857 10.1895 2.71429C11.2 2.84286 12 3.74286 12 4.85714C12 5.97143 11.1579 6.87143 10.1053 7Z" fill="rgb(187,24,142)" fill-rule="nonzero" />
		<path id="矢量 55" d="M13.0192 2.78437L13.1317 2.78437C13.2545 2.97188 13.4563 3.39938 13.2817 3.60937C12.1942 3.72187 11.5567 4.28437 11.2942 5.22187C11.1442 5.78437 11.1817 6.45937 11.4442 7.09687C12.5692 9.98437 10.8442 12.1969 10.7692 12.3094C9.49419 13.9969 7.91919 14.3344 6.83169 14.3344C6.11919 14.3344 5.48169 14.1844 5.10669 14.0719L4.24419 15.7219C4.05669 16.0219 3.79419 16.2094 3.49419 16.3219C3.00669 16.4719 2.74419 16.3219 2.55669 16.2469C1.95669 15.9094 1.73169 15.1594 2.03169 14.5594L2.14419 14.3344C2.14419 14.3344 1.65669 14.4844 1.50669 14.4844C0.944189 14.4844 0.456689 14.1469 0.306689 13.6219C0.194189 13.3219 0.231689 12.9844 0.381689 12.6844C0.531689 12.3844 0.831689 12.1969 1.13169 12.0844L1.50669 11.9719L1.09419 11.7469C0.494189 11.4094 0.231689 10.6594 0.569189 10.0594C0.756689 9.75937 1.01919 9.53438 1.31919 9.45938C1.61919 9.34688 1.95669 9.38438 2.25669 9.53438L3.53169 10.2094C3.98169 10.1344 4.39419 10.0219 4.76919 9.87187C3.11919 9.72188 1.84419 9.12187 1.01919 8.03438C-0.0683115 6.57188 -0.293311 4.28438 0.381689 1.84687C0.456689 1.65937 0.606689 1.54688 0.794189 1.58438C0.981689 1.58438 1.13169 1.73437 1.13169 1.92188C1.16919 2.67187 1.50669 3.42188 2.06919 3.87188C2.48169 2.55938 3.41919 1.20937 4.76919 0.084375C4.91919 -0.028125 5.10669 -0.028125 5.25669 0.084375C5.40669 0.196875 5.40669 0.421875 5.33169 0.571875C4.46919 2.07187 4.84419 4.09688 6.19419 5.14688C6.60669 5.48438 6.94419 5.89687 7.20669 6.34688C7.20669 5.70938 7.05669 5.25937 7.05669 5.25937L7.05669 5.18437C6.90669 4.09687 7.09419 3.23438 7.58169 2.63437C8.14419 1.92187 8.93169 1.80937 9.11919 1.77187C9.60669 1.65937 10.0942 1.73437 10.5067 1.95937C11.3692 2.48438 12.1942 2.74688 13.0192 2.78437ZM9.04419 3.90937C9.04419 3.79688 9.08169 3.72188 9.15669 3.64688L9.15669 3.64688C9.26919 3.53438 9.53169 3.53438 9.68169 3.64688C9.75669 3.72188 9.79419 3.79688 9.79419 3.90937C9.79419 4.02187 9.75669 4.09687 9.68169 4.17187C9.60669 4.24687 9.53169 4.28437 9.41919 4.28437C9.30669 4.28437 9.23169 4.24687 9.15669 4.17187C9.08169 4.09687 9.04419 4.02187 9.04419 3.90937ZM5.18169 5.29688C4.35669 4.35938 3.98169 3.04688 4.13169 1.80937L4.13169 1.80937C3.38169 2.67188 2.85669 3.64688 2.63169 4.50938C2.78169 4.62188 2.89419 4.69688 3.04419 4.77188C3.64419 5.10938 4.43169 5.18437 4.46919 5.18437C4.73169 5.18437 4.95669 5.22188 5.18169 5.29688ZM10.6942 7.39687C10.3942 6.60937 10.3192 5.78438 10.5067 5.03438L10.5067 5.03438C10.6567 4.47188 10.9942 3.79688 11.6692 3.34688C11.1817 3.19688 10.6567 2.97188 10.1317 2.67188C9.86919 2.52188 9.56919 2.48438 9.26919 2.55938L9.19419 2.55938C9.19419 2.55938 8.55669 2.63438 8.14419 3.15938C7.76919 3.60938 7.65669 4.24688 7.76919 5.10938C7.80669 5.33438 8.10669 6.38438 7.84419 7.54688C7.80669 7.69688 7.69419 7.80938 7.54419 7.84688C7.39419 7.84688 7.24419 7.77188 7.16919 7.65938C6.15669 5.85938 4.01919 5.89687 3.86919 5.85938L3.79419 5.85938C2.78169 5.63438 2.21919 5.18438 1.99419 4.99688C1.99419 4.95938 1.16919 4.28438 0.831689 3.53438C0.644189 5.14687 0.906689 6.60938 1.65669 7.58438C2.55669 8.78438 4.09419 9.27188 6.23169 9.12188C6.38169 9.08438 6.53169 9.19688 6.60669 9.34688C6.68169 9.49688 6.60669 9.64688 6.49419 9.75938C5.78169 10.3594 4.80669 10.7344 3.60669 10.9594C3.53169 10.9594 3.45669 10.9594 3.38169 10.9219L1.95669 10.2094C1.84419 10.1344 1.69419 10.1344 1.58169 10.1719C1.46919 10.2094 1.35669 10.3219 1.28169 10.4344C1.16919 10.6594 1.28169 10.9594 1.50669 11.1094L2.70669 11.7469C2.81919 11.8219 2.89419 11.9719 2.89419 12.1219C2.89419 12.2719 2.78169 12.4219 2.63169 12.4594L1.35669 12.8344C1.20669 12.8719 1.13169 12.9469 1.05669 13.0594C0.981689 13.1719 0.981689 13.3219 1.01919 13.4344C1.09419 13.6969 1.35669 13.8469 1.61919 13.7719L2.74419 13.4344L2.85669 13.4344C2.96919 13.4344 3.08169 13.5094 3.15669 13.5844C3.23169 13.6969 3.26919 13.8469 3.19419 13.9969L2.66919 15.0094C2.51919 15.2344 2.63169 15.5719 2.85669 15.6844C3.26919 15.7969 3.45669 15.5719 3.53169 15.4594L4.54419 13.5094C4.65669 13.3219 4.84419 13.2469 5.03169 13.3219C5.21919 13.3969 5.93169 13.6594 6.79419 13.6594C8.14419 13.6594 9.26919 13.0594 10.1317 11.8969C10.1692 11.7844 11.6692 9.87187 10.6942 7.39687Z" fill="rgb(187,24,142)" fill-rule="evenodd" transform="matrix(0.998839,0.0481741,-0.0481741,0.998839,-2.21063,6.99998)" />
		<path id="矢量 60" d="M13.0192 2.78437L13.1317 2.78437C13.2545 2.97188 13.4563 3.39938 13.2817 3.60937C12.1942 3.72187 11.5567 4.28437 11.2942 5.22187C11.1442 5.78437 11.1817 6.45937 11.4442 7.09687C12.5692 9.98437 10.8442 12.1969 10.7692 12.3094C9.49419 13.9969 7.91919 14.3344 6.83169 14.3344C6.11919 14.3344 5.48169 14.1844 5.10669 14.0719L4.24419 15.7219C4.05669 16.0219 3.79419 16.2094 3.49419 16.3219C3.00669 16.4719 2.74419 16.3219 2.55669 16.2469C1.95669 15.9094 1.73169 15.1594 2.03169 14.5594L2.14419 14.3344C2.14419 14.3344 1.65669 14.4844 1.50669 14.4844C0.944189 14.4844 0.456689 14.1469 0.306689 13.6219C0.194189 13.3219 0.231689 12.9844 0.381689 12.6844C0.531689 12.3844 0.831689 12.1969 1.13169 12.0844L1.50669 11.9719L1.09419 11.7469C0.494189 11.4094 0.231689 10.6594 0.569189 10.0594C0.756689 9.75937 1.01919 9.53438 1.31919 9.45938C1.61919 9.34688 1.95669 9.38438 2.25669 9.53438L3.53169 10.2094C3.98169 10.1344 4.39419 10.0219 4.76919 9.87187C3.11919 9.72188 1.84419 9.12187 1.01919 8.03438C-0.0683115 6.57188 -0.293311 4.28438 0.381689 1.84687C0.456689 1.65937 0.606689 1.54688 0.794189 1.58438C0.981689 1.58438 1.13169 1.73437 1.13169 1.92188C1.16919 2.67187 1.50669 3.42188 2.06919 3.87188C2.48169 2.55938 3.41919 1.20937 4.76919 0.084375C4.91919 -0.028125 5.10669 -0.028125 5.25669 0.084375C5.40669 0.196875 5.40669 0.421875 5.33169 0.571875C4.46919 2.07187 4.84419 4.09688 6.19419 5.14688C6.60669 5.48438 6.94419 5.89687 7.20669 6.34688C7.20669 5.70938 7.05669 5.25937 7.05669 5.25937L7.05669 5.18437C6.90669 4.09687 7.09419 3.23438 7.58169 2.63437C8.14419 1.92187 8.93169 1.80937 9.11919 1.77187C9.60669 1.65937 10.0942 1.73437 10.5067 1.95937C11.3692 2.48438 12.1942 2.74688 13.0192 2.78437ZM9.04419 3.90937C9.04419 3.79688 9.08169 3.72188 9.15669 3.64688L9.15669 3.64688C9.26919 3.53438 9.53169 3.53438 9.68169 3.64688C9.75669 3.72188 9.79419 3.79688 9.79419 3.90937C9.79419 4.02187 9.75669 4.09687 9.68169 4.17187C9.60669 4.24687 9.53169 4.28437 9.41919 4.28437C9.30669 4.28437 9.23169 4.24687 9.15669 4.17187C9.08169 4.09687 9.04419 4.02187 9.04419 3.90937ZM5.18169 5.29688C4.35669 4.35938 3.98169 3.04688 4.13169 1.80937L4.13169 1.80937C3.38169 2.67188 2.85669 3.64688 2.63169 4.50938C2.78169 4.62188 2.89419 4.69688 3.04419 4.77188C3.64419 5.10938 4.43169 5.18437 4.46919 5.18437C4.73169 5.18437 4.95669 5.22188 5.18169 5.29688ZM10.6942 7.39687C10.3942 6.60937 10.3192 5.78438 10.5067 5.03438L10.5067 5.03438C10.6567 4.47188 10.9942 3.79688 11.6692 3.34688C11.1817 3.19688 10.6567 2.97188 10.1317 2.67188C9.86919 2.52188 9.56919 2.48438 9.26919 2.55938L9.19419 2.55938C9.19419 2.55938 8.55669 2.63438 8.14419 3.15938C7.76919 3.60938 7.65669 4.24688 7.76919 5.10938C7.80669 5.33438 8.10669 6.38438 7.84419 7.54688C7.80669 7.69688 7.69419 7.80938 7.54419 7.84688C7.39419 7.84688 7.24419 7.77188 7.16919 7.65938C6.15669 5.85938 4.01919 5.89687 3.86919 5.85938L3.79419 5.85938C2.78169 5.63438 2.21919 5.18438 1.99419 4.99688C1.99419 4.95938 1.16919 4.28438 0.831689 3.53438C0.644189 5.14687 0.906689 6.60938 1.65669 7.58438C2.55669 8.78438 4.09419 9.27188 6.23169 9.12188C6.38169 9.08438 6.53169 9.19688 6.60669 9.34688C6.68169 9.49688 6.60669 9.64688 6.49419 9.75938C5.78169 10.3594 4.80669 10.7344 3.60669 10.9594C3.53169 10.9594 3.45669 10.9594 3.38169 10.9219L1.95669 10.2094C1.84419 10.1344 1.69419 10.1344 1.58169 10.1719C1.46919 10.2094 1.35669 10.3219 1.28169 10.4344C1.16919 10.6594 1.28169 10.9594 1.50669 11.1094L2.70669 11.7469C2.81919 11.8219 2.89419 11.9719 2.89419 12.1219C2.89419 12.2719 2.78169 12.4219 2.63169 12.4594L1.35669 12.8344C1.20669 12.8719 1.13169 12.9469 1.05669 13.0594C0.981689 13.1719 0.981689 13.3219 1.01919 13.4344C1.09419 13.6969 1.35669 13.8469 1.61919 13.7719L2.74419 13.4344L2.85669 13.4344C2.96919 13.4344 3.08169 13.5094 3.15669 13.5844C3.23169 13.6969 3.26919 13.8469 3.19419 13.9969L2.66919 15.0094C2.51919 15.2344 2.63169 15.5719 2.85669 15.6844C3.26919 15.7969 3.45669 15.5719 3.53169 15.4594L4.54419 13.5094C4.65669 13.3219 4.84419 13.2469 5.03169 13.3219C5.21919 13.3969 5.93169 13.6594 6.79419 13.6594C8.14419 13.6594 9.26919 13.0594 10.1317 11.8969C10.1692 11.7844 11.6692 9.87187 10.6942 7.39687Z" fill="rgb(187,24,142)" fill-rule="evenodd" transform="matrix(-0.998839,0.0481751,0.0481751,0.998839,34.3344,6.99998)" />
	</g>
	<g filter="url(#filter_5)">
		<path id="" d="M12.3682 16.1675Q12.2144 16.1812 11.8931 16.1812Q10.0029 16.1812 8.5332 15.3711L8.5332 13.3135Q9.30225 13.7886 10.2251 14.1099Q11.1514 14.4312 11.9067 14.4312Q12.522 14.4312 12.8774 14.1235Q13.2363 13.8159 13.2363 13.4229Q13.2363 12.8794 12.8159 12.4248Q12.3955 11.9668 11.4727 11.6865Q10.4097 11.3516 9.81152 11.0098Q9.2168 10.6646 8.91602 10.1484Q8.61523 9.62891 8.61523 8.83252Q8.61523 8.07715 8.97754 7.45508Q9.34326 6.82959 10.0508 6.45361Q10.7583 6.07422 11.7393 6.0332Q11.8623 6.01953 12.1289 6.01953Q12.8569 6.01953 13.5918 6.1665Q14.3267 6.31348 14.8325 6.53564L14.8325 8.34033Q14.2856 8.10449 13.5576 7.95068Q12.8296 7.79688 12.269 7.79688Q11.5547 7.79688 11.1753 8.0498Q10.7993 8.29932 10.7993 8.74707Q10.7993 9.15381 11.2061 9.4751Q11.6128 9.79639 12.4673 10.0903Q13.4893 10.3877 14.1318 10.7603Q14.7744 11.1294 15.1367 11.7241Q15.5024 12.3188 15.5024 13.2144Q15.5024 14.0688 15.1094 14.7285Q14.7197 15.3848 14.0122 15.7573Q13.3047 16.1265 12.3682 16.1675ZM20.3202 16.1675Q20.1664 16.1812 19.8451 16.1812Q17.9549 16.1812 16.4852 15.3711L16.4852 13.3135Q17.2542 13.7886 18.1771 14.1099Q19.1034 14.4312 19.8587 14.4312Q20.474 14.4312 20.8294 14.1235Q21.1883 13.8159 21.1883 13.4229Q21.1883 12.8794 20.7679 12.4248Q20.3475 11.9668 19.4247 11.6865Q18.3617 11.3516 17.7635 11.0098Q17.1688 10.6646 16.868 10.1484Q16.5672 9.62891 16.5672 8.83252Q16.5672 8.07715 16.9295 7.45508Q17.2953 6.82959 18.0028 6.45361Q18.7103 6.07422 19.6913 6.0332Q19.8143 6.01953 20.0809 6.01953Q20.8089 6.01953 21.5438 6.1665Q22.2787 6.31348 22.7845 6.53564L22.7845 8.34033Q22.2376 8.10449 21.5096 7.95068Q20.7816 7.79688 20.221 7.79688Q19.5067 7.79688 19.1273 8.0498Q18.7513 8.29932 18.7513 8.74707Q18.7513 9.15381 19.1581 9.4751Q19.5648 9.79639 20.4193 10.0903Q21.4413 10.3877 22.0838 10.7603Q22.7264 11.1294 23.0887 11.7241Q23.4544 12.3188 23.4544 13.2144Q23.4544 14.0688 23.0614 14.7285Q22.6717 15.3848 21.9642 15.7573Q21.2567 16.1265 20.3202 16.1675Z" fill="url(#paint_linear_5)" fill-rule="nonzero" />
	</g>
</svg>
