<svg viewBox="0 0 230 230" xmlns="http://www.w3.org/2000/svg" xmlns:xlink="http://www.w3.org/1999/xlink" width="230.000000" height="230.000000" fill="none" customFrame="#000000">
	<rect id="组件 1" width="230.000000" height="230.000000" x="0.000000" y="0.000000" fill="rgb(255,255,255)" fill-opacity="0" />
	<circle id="椭圆 1" cx="115" cy="115" r="115" fill="rgb(191,227,255)" />
	<path id="" d="M80.442 167.219L39.8795 167.219L39.8795 67.9062L80.442 67.9062L80.442 167.219ZM65.5983 150.062L65.5983 85.0625L54.8483 85.0625L54.8483 150.062L65.5983 150.062ZM84.5358 77.125L110.786 77.125L110.786 61.125L127.411 61.125L127.411 77.125L153.536 77.125L153.536 92.4688L127.411 92.4688L127.411 115.781L149.567 115.781L149.567 174L88.5045 174L88.5045 115.781L110.786 115.781L110.786 92.4688L84.5358 92.4688L84.5358 77.125ZM133.067 158.656L133.067 131.125L105.036 131.125L105.036 158.656L133.067 158.656ZM191.692 133.188L176.067 133.188L173.63 73.4062L194.098 73.4062L191.692 133.188ZM173.505 142L194.505 142L194.505 163L173.505 163L173.505 142Z" fill="rgb(255,255,255)" fill-rule="nonzero" />
</svg>
